<svg width="1440" height="970" viewBox="0 0 1440 970" fill="none" xmlns="http://www.w3.org/2000/svg">
<mask id="mask0_110_97" style="mask-type:luminance" maskUnits="userSpaceOnUse" x="0" y="0" width="1440" height="970">
<path d="M0 3.09944e-05H1440V970H0V3.09944e-05Z" fill="white"/>
</mask>
<g mask="url(#mask0_110_97)">
<path d="M505.543 609.58C494.455 635.548 482.137 660.325 466.551 681.571C462.425 687.194 457.787 692.339 452.867 696.538C444.625 703.579 439.629 700.602 436.369 687.755C435.828 685.625 435.29 683.438 435.068 681.216C434.59 676.409 434.318 671.562 433.955 666.643C435.072 627.884 444.587 594.04 465.406 567.328C469.08 562.61 473.716 558.91 478.345 556.156C485.899 551.663 491.969 554.23 496.973 563.011C502.907 573.425 506.163 585.521 507.215 598.598C507.502 602.159 506.859 606.499 505.543 609.58ZM438.232 870.674C435.247 877.576 431.92 884.353 428.039 890.291C424.821 895.216 420.887 899.682 416.675 902.798C410.882 907.082 406.235 903.898 404.057 895.244C401.305 884.313 402.869 873.472 405.116 862.866C408.603 846.394 415.41 832.543 423.602 819.95C437.739 798.216 454.255 780.37 471.801 764.128C462.251 800.841 452.674 837.266 438.232 870.674ZM335.031 605.697C322.595 632.25 310.779 659.49 294.557 682.12C290.343 687.996 285.501 693.385 280.318 697.453C272.673 703.45 267.964 700.846 265.191 689.266C263.314 681.43 262.787 672.975 261.656 664.794C263.244 629.878 272.106 599.694 288.773 573.957C293.471 566.701 298.967 560.684 305.485 556.742C313.966 551.616 320.161 553.596 325.856 563.747C331.724 574.206 334.306 586.668 336.156 599.405C336.436 601.34 335.845 603.959 335.031 605.697ZM601.348 732.09C603.861 730.439 606.312 728.435 608.523 726.106C612.048 722.394 615.493 718.486 618.716 714.281C629.478 700.243 638.438 684.071 647.088 667.537C649.88 662.202 652.928 657.127 655.865 651.94C655.261 655.246 654.793 658.617 653.987 661.826C653.974 661.88 653.959 661.936 653.945 661.993C663.966 642.614 675.997 624.78 689.149 609.953C694.464 588.426 699.779 566.901 705.054 545.354C706.002 541.488 706.763 537.533 707.927 532.158C702.063 532.158 696.97 532.613 691.939 532.031C686.825 531.438 684.023 534.239 681.504 540.374C665.202 580.085 647.488 618.584 628.11 655.534C621.4 668.329 613.755 680.193 606.366 692.28C604.748 694.924 602.503 696.947 600.343 698.8C598.232 700.613 596.663 699.035 596.197 696.017C595.812 693.521 595.649 690.8 595.92 688.29C597.055 677.746 597.921 667.088 599.73 656.759C606.682 617.073 616.157 578.471 626.384 540.212C626.98 537.978 627.291 535.597 627.948 532.163C620.44 532.163 613.711 532.404 606.998 532.066C603.326 531.883 601.576 534.007 600.374 538.605C597.19 550.771 593.906 562.903 590.305 574.842C588.343 581.345 586.176 587.952 583.208 593.608C567.746 623.072 549.582 649.111 529.763 672.942C526.274 677.139 522.442 680.787 518.768 684.688C518.701 684.946 518.673 685.247 518.554 685.442C518.479 685.559 518.266 685.512 518.116 685.538C518.312 685.226 518.508 684.914 518.706 684.602C519.361 680.85 519.849 677.024 520.697 673.357C530.027 632.993 539.421 592.658 548.765 552.299C549.574 548.808 550.158 545.218 551.065 540.554C542.73 540.554 535.535 540.594 528.341 540.533C525.855 540.512 524.538 542.061 523.906 545.408C523.05 549.955 521.921 554.403 520.596 560.289C519.692 557.603 519.334 556.123 518.744 554.851C515.231 547.276 512.156 539.17 507.991 532.355C502.947 524.104 496.016 520.507 488.017 520.81C480.848 521.08 474.233 523.846 467.862 528.017C450.435 539.428 437.769 558.072 426.931 579.668C414.93 603.574 402.969 627.543 390.328 650.79C383.044 664.189 374.617 676.43 366.348 688.733C363.551 692.893 359.825 696.039 356.212 698.884C353.618 700.928 351.669 699.281 351.046 695.26C350.659 692.759 350.453 690.044 350.715 687.537C351.781 677.315 352.292 666.816 354.397 656.996C361.972 621.65 370.113 586.537 378.033 551.332C378.575 548.923 379.056 546.488 379.838 542.767C371.822 542.767 364.424 542.523 357.05 543.001C355.777 543.083 354.189 545.955 353.473 548.024C352.002 552.287 351.021 556.878 349.342 563.203C348.082 559.1 347.499 556.782 346.687 554.638C344.516 548.916 342.559 542.976 339.956 537.652C334.318 526.124 326.436 519.703 316.209 521.054C310.941 521.749 305.541 523.149 300.614 525.746C286.106 533.394 274.431 546.671 264.659 563.234C245.251 596.135 235.409 633.594 237.152 676.395C237.645 688.466 239.631 700.135 243.928 710.774C252.037 730.856 268.27 740.484 284.53 728.09C288.391 725.146 292.088 721.648 295.542 717.85C306.446 705.866 314.623 690.408 323.086 675.337C324.464 672.881 325.86 670.441 327.248 667.994C327.832 671.084 327.613 673.603 327.317 676.107C326.106 686.371 325.606 696.632 326.77 706.995C329.096 727.717 339.469 737.601 353.873 731.691C359.357 729.442 364.713 725.653 369.5 721.249C381.274 710.415 390.54 695.727 399.697 680.989C402.251 676.878 404.7 672.644 407.761 667.522C407.93 670.746 407.989 672.623 408.129 674.49C409.217 688.771 411.172 702.661 417.199 714.823C425.753 732.083 438.764 737.775 452.691 730.002C455.696 728.325 458.606 726.148 461.33 723.706C471.62 714.481 480.112 702.488 488.042 689.655C489.371 687.504 490.886 685.568 492.315 683.534C490.911 692.982 488.432 701.324 486.258 709.815C484.938 714.978 482.662 718.542 479.33 721.439C471.422 728.308 463.639 735.466 455.91 742.718C436.732 760.71 418.388 780.126 402.64 803.891C394.858 815.635 388.118 828.388 383.201 842.892C376.707 862.042 375.033 882.026 378.664 902.547C382.029 921.564 390.508 933.942 404.759 937.226C414.047 939.368 422.875 936.731 430.983 930.031C437.862 924.346 443.777 917.071 448.891 908.513C459.4 890.925 467.987 871.542 474.067 850.451C484.804 813.209 494.757 775.53 504.807 737.916C506.18 732.778 507.958 728.991 511.267 725.946C520.013 717.897 528.828 709.906 537.094 700.963C548.839 688.254 560.115 674.715 571.617 661.502C570.97 668.048 570.304 675.041 569.58 682.021C568.426 693.141 569.277 704.05 571.806 714.61C576.348 733.573 588.366 740.613 601.348 732.09Z" fill="black"/>
<path d="M101.262 470.988C100.466 472.544 99.5677 474.02 98.8905 475.669C80.3605 520.727 64.0094 567.268 50.1461 615.453C39.5848 652.162 30.0741 689.351 25.2486 728.514C24.1204 737.656 23.6593 746.794 24.7335 757.56C29.7954 753.288 32.844 748.404 35.1478 742.933C41.3819 728.131 47.8609 713.445 53.2234 698.032C72.0659 643.862 85.7416 587.153 94.516 528.258C97.3417 509.299 98.985 490.003 101.171 470.862C101.282 470.695 101.395 470.531 101.507 470.364C101.426 470.573 101.343 470.78 101.262 470.988ZM137.454 630.442C136.938 618.51 136.535 607.911 135.998 597.328C135.746 592.394 138.057 591.697 140.729 590.756C153.864 586.132 166.641 580.033 178.797 571.655C223.562 540.8 255.557 493.609 273.225 428.349C281.913 396.262 283.398 363.429 277.323 330.118C276.356 324.823 274.845 319.664 273.249 314.65C264.278 286.474 246.5 275.858 224.876 283.729C210.283 289.041 198.318 300.79 187.002 313.993C167.381 336.891 151.541 364.476 136.493 393.027C135.805 394.334 135.184 395.716 134.447 396.966C129.174 405.919 126.546 415.58 126.022 427.706C124.154 471.024 119.331 513.855 112.739 556.307C105.405 603.535 96.0192 649.891 82.8484 694.653C75.9573 718.076 68.1288 740.917 57.098 761.222C53.0512 768.671 48.4132 775.686 43.38 781.851C39.7993 786.236 35.3387 789.722 30.8578 792.111C20.0803 797.854 9.30113 792.11 4.39122 777.596C2.0773 770.754 0.800422 762.858 0.310613 755.282C-0.783855 738.395 1.17876 721.699 3.62442 705.173C11.0307 655.137 23.7488 607.552 38.5072 560.957C56.3869 504.513 77.3794 450.407 102.377 399.38C104.309 395.436 105.204 391.54 104.989 386.716C103.125 344.614 98.426 303.131 91.1886 262.186C90.1888 256.532 89.1027 250.906 88.0995 245.254C87.9981 244.68 88.1924 244.004 88.3579 242.153C95.8182 239.392 103.596 236.403 111.419 233.672C114.296 232.67 114.985 235.828 115.397 238.796C116.848 249.278 118.628 259.708 119.562 270.282C121.771 295.319 123.555 320.429 125.553 345.501C125.7 347.335 126.185 349.116 126.494 350.824C137.173 334.876 147.304 318.789 158.186 303.751C170.951 286.106 185.083 270.728 201.25 259.272C212.84 251.056 225.08 245.597 238.097 245.777C260.438 246.087 278.106 259.18 290.201 285.688C297.8 302.345 302.188 320.72 304.473 340.063C309.581 383.296 304.514 424.502 291.029 463.812C272.281 518.458 242.779 559.378 206.116 590.979C187.384 607.122 167.421 619.444 146.133 627.519C143.681 628.45 141.19 629.192 137.454 630.442Z" fill="black"/>
<path d="M790.367 541.689C787.443 531.54 782.015 525.445 774.195 523.883C768.865 522.818 764.085 525.415 759.587 529.1C749.978 536.974 741.131 552.364 733.517 563.313C726.312 573.675 713.221 588.359 715.866 596.08C719.938 607.958 723.78 617.654 728.964 611.214C736.907 601.347 749.463 581.305 757.173 567.674C762.144 558.888 767.86 560.357 767.365 571.949C766.937 581.903 765.009 591.146 763.59 600.803C767.777 602.731 772.43 606.846 770.226 614.159C768.047 621.387 766.62 628.896 765.525 636.526C765.566 637.661 765.441 638.855 765.091 640.094C765.059 640.207 765.025 640.319 764.993 640.432C763.779 649.842 762.968 659.39 761.82 668.779C759.553 687.292 754.919 706.769 759.023 725.385C759.188 726.138 759.29 726.863 759.342 727.562C761.994 726.949 762.605 724.976 764.235 718.551C770.582 693.516 777.033 668.519 782.873 643.257C788.149 620.434 792.146 597.133 793.553 573.11C794.188 562.271 793.271 551.77 790.367 541.689Z" fill="black"/>
<path d="M934.778 601.886C923.599 624.152 912.706 646.73 900.878 668.316C896.034 677.156 889.604 684.769 883.017 691.204C873.368 700.633 867.061 696.957 864.065 680.947C862.737 673.853 862.712 666.287 862.322 661.623C863.575 622.695 873.039 591.493 891.599 566.122C895.965 560.156 901.601 555.521 907.192 551.863C914.296 547.218 920.317 549.827 925.188 558.385C931.398 569.301 934.309 582.28 936.173 595.704C936.435 597.59 935.64 600.168 934.778 601.886ZM1045.93 584.637C1042.31 580.987 1038.46 576.825 1034.41 573.102C1031.06 570.033 1029.74 570.561 1027.45 574.908C1026.76 576.213 1026.27 577.71 1025.58 579.007C1010.75 606.887 996.188 635.042 980.942 662.47C975.29 672.638 968.158 681.266 961.449 690.233C959.206 693.229 956.206 697.332 952.899 694.59C949.587 691.842 949.861 686.106 950.383 681.295C951.32 672.666 952.323 664.018 953.774 655.535C959.926 619.57 968.735 584.736 977.354 549.824C978.152 546.599 978.798 543.302 979.844 538.535C971.558 538.535 964.379 538.287 957.228 538.763C955.914 538.85 954.254 541.566 953.531 543.603C951.879 548.255 950.709 553.236 949.609 557.139C945.493 547.664 941.887 537.832 937.229 529.074C932.729 520.612 925.994 516.816 918.292 516.642C910.654 516.468 903.501 519.101 896.703 523.654C876.391 537.259 862.042 559.277 851.195 586.2C848.92 591.849 846.861 597.735 844.152 602.96C830.625 629.046 815.849 653.7 798.985 675.772C793.571 682.855 787.734 689.442 781.637 695.352C776.241 700.581 773.124 698.144 773.604 689.032C774.146 678.751 775.28 668.434 776.937 658.381C779.948 640.112 783.596 622.116 787.608 604.269C786.574 603.063 785.807 601.412 785.555 599.246C785.123 595.542 785.072 592.457 785.29 588.727C785.459 585.829 786.312 583.568 787.532 581.942C787.908 579.978 788.307 578.024 788.726 576.081C788.197 575.509 787.729 574.843 787.329 574.09C786.099 573.653 784.953 572.83 784.018 571.647C782.916 572.614 781.686 573.172 780.445 573.322C777.217 577.67 771.588 577.203 769.069 572.386C763.198 603.917 756.307 633.123 750.142 664.675C746.774 681.79 743.731 696.204 747.766 713.719C751.901 729.456 762.131 737.25 773.915 733.738C782.11 731.296 789.015 725.316 795.64 718.634C808.745 705.421 819.965 689.398 830.726 672.713C832.547 669.888 834.374 667.073 836.881 663.202C837.087 668.49 837.139 672.267 837.397 676.014C838.33 689.463 841.081 702.038 846.976 713.011C855.026 727.997 868.215 733.665 880.573 726.259C886.258 722.852 891.651 717.881 896.46 712.405C906.803 700.626 914.985 685.97 923.006 671.197C924.396 668.638 925.889 666.184 927.335 663.68C928.017 666.507 927.705 668.365 927.465 670.242C925.742 683.741 924.784 697.168 928.294 710.51C932.245 725.536 940.85 732.126 952.055 728.41C958.97 726.118 965.374 722.09 970.804 715.826C977.43 708.183 984.107 700.448 989.953 691.706C1011.31 659.779 1028.93 623.908 1045.9 587.41C1046.11 586.972 1045.93 586.193 1045.93 584.637Z" fill="black"/>
<path d="M589.592 878.826C585.582 888.207 580.4 896.719 575.249 905.019C573.065 908.536 569.78 911.189 566.627 912.991C561.153 916.118 557.087 913.191 554.964 905.423C552.071 894.84 553.606 884.341 555.614 873.951C559.096 855.935 566.693 841.242 575.563 827.738C589.32 806.795 605.45 789.716 622.436 773.868C613.37 810.15 603.677 845.868 589.592 878.826ZM703.994 652.048C701.706 655.273 699.395 658.473 697.048 661.629C688.224 673.486 678.825 684.519 669.686 695.923C679.962 647.259 691.533 599.719 701.971 550.25C693.355 550.25 685.932 550.018 678.528 550.468C677.214 550.548 675.472 553.141 674.827 555.135C668.86 573.575 663.953 592.538 657.978 610.851C655.627 625.84 653.125 641.446 649.786 656.646C648.193 669.462 646.324 682.178 642.77 694.288C643.006 694.098 643.238 693.903 643.493 693.741C641.819 702.023 639.525 709.758 637.592 717.659C636.011 724.12 633.133 728.472 628.971 732.156C608.505 750.267 588.215 768.756 569.939 791.119C557.445 806.406 545.991 822.955 537.544 843.07C527.814 866.237 524.48 890.772 530.484 916.792C534.69 935.018 544.937 945.885 558.337 947.293C566.492 948.151 574.075 945.632 581.172 940.064C589.649 933.413 596.422 924.123 602.369 913.58C612.804 895.077 621.028 874.661 627.213 852.946C637.156 818.04 646.3 782.689 655.638 747.456C656.979 742.401 658.663 738.361 662.116 735.456C667.497 730.926 672.625 725.814 677.806 720.843C690.704 708.468 703.045 695.128 714.471 680.28C718.543 669.117 713.294 653.802 703.994 652.048Z" fill="black"/>
<path d="M678.103 7.35331e-05C503.135 7.35331e-05 361.295 197.019 361.295 440.05H395.649C395.649 223.372 522.107 47.7163 678.103 47.7163C834.098 47.7163 960.557 223.372 960.557 440.05H994.911C994.911 197.019 853.071 7.35331e-05 678.103 7.35331e-05Z" fill="#EFB6E9"/>
<path d="M678.103 7.35331e-05C503.135 7.35331e-05 361.295 197.019 361.295 440.05H395.649C395.649 223.372 522.107 47.7163 678.103 47.7163C834.098 47.7163 960.557 223.372 960.557 440.05H994.911C994.911 197.019 853.071 7.35331e-05 678.103 7.35331e-05Z" stroke="white" stroke-width="1.53467" stroke-miterlimit="10"/>
<path d="M678.103 47.7164C522.107 47.7164 395.649 223.372 395.649 440.05H430.001C430.001 249.725 541.08 95.4327 678.103 95.4327C815.126 95.4327 926.204 249.725 926.204 440.05H960.557C960.557 223.372 834.098 47.7164 678.103 47.7164Z" fill="#376CD3"/>
<path d="M678.103 47.7164C522.107 47.7164 395.649 223.372 395.649 440.05H430.001C430.001 249.725 541.08 95.4327 678.103 95.4327C815.126 95.4327 926.204 249.725 926.204 440.05H960.557C960.557 223.372 834.098 47.7164 678.103 47.7164Z" stroke="white" stroke-width="1.53467" stroke-miterlimit="10"/>
<path d="M678.103 95.4331C541.08 95.4331 430.001 249.723 430.001 440.051H468.531C468.531 279.281 562.36 148.951 678.103 148.951C793.846 148.951 887.675 279.281 887.675 440.051H926.204C926.204 249.723 815.126 95.4331 678.103 95.4331Z" fill="#BBDDF2"/>
<path d="M678.103 95.4331C541.08 95.4331 430.001 249.723 430.001 440.051H468.531C468.531 279.281 562.36 148.951 678.103 148.951C793.846 148.951 887.675 279.281 887.675 440.051H926.204C926.204 249.723 815.126 95.4331 678.103 95.4331Z" stroke="white" stroke-width="1.53467" stroke-miterlimit="10"/>
<path d="M678.103 148.951C562.359 148.951 468.531 279.28 468.531 440.05H502.848C502.848 305.608 581.312 196.618 678.103 196.618C774.894 196.618 853.358 305.608 853.358 440.05H887.675C887.675 279.28 793.846 148.951 678.103 148.951Z" fill="#8ABF80"/>
<path d="M678.103 148.951C562.359 148.951 468.531 279.28 468.531 440.05H502.848C502.848 305.608 581.312 196.618 678.103 196.618C774.894 196.618 853.358 305.608 853.358 440.05H887.675C887.675 279.28 793.846 148.951 678.103 148.951Z" stroke="white" stroke-width="1.53467" stroke-miterlimit="10"/>
<path d="M678.103 196.618C581.312 196.618 502.848 305.606 502.848 440.051H540.575C540.575 334.549 602.149 249.022 678.103 249.022C754.057 249.022 815.631 334.549 815.631 440.051H853.358C853.358 305.606 774.894 196.618 678.103 196.618Z" fill="#EFC889"/>
<path d="M678.103 196.618C581.312 196.618 502.848 305.606 502.848 440.051H540.575C540.575 334.549 602.149 249.022 678.103 249.022C754.057 249.022 815.631 334.549 815.631 440.051H853.358C853.358 305.606 774.894 196.618 678.103 196.618Z" stroke="white" stroke-width="1.53467" stroke-miterlimit="10"/>
<path d="M678.103 249.023C602.149 249.023 540.575 334.548 540.575 440.052H576.848C576.848 362.375 622.182 299.407 678.103 299.407C734.024 299.407 779.358 362.375 779.358 440.052H815.631C815.631 334.548 754.057 249.023 678.103 249.023Z" fill="#F29A68"/>
<path d="M678.103 249.023C602.149 249.023 540.575 334.548 540.575 440.052H576.848C576.848 362.375 622.182 299.407 678.103 299.407C734.024 299.407 779.358 362.375 779.358 440.052H815.631C815.631 334.548 754.057 249.023 678.103 249.023Z" stroke="white" stroke-width="1.53467" stroke-miterlimit="10"/>
<path d="M678.103 299.407C622.182 299.407 576.848 362.375 576.848 440.052H612.886C613.916 392.09 642.21 353.643 676.988 353.643C711.766 353.643 740.06 392.09 741.091 440.052H779.358C779.358 362.375 734.024 299.407 678.103 299.407Z" fill="#E04E36"/>
<path d="M678.103 299.407C622.182 299.407 576.848 362.375 576.848 440.052H612.886C613.916 392.09 642.21 353.643 676.988 353.643C711.766 353.643 740.06 392.09 741.091 440.052H779.358C779.358 362.375 734.024 299.407 678.103 299.407Z" stroke="white" stroke-width="1.53467" stroke-miterlimit="10"/>
</g>
</svg>
