<svg width="1440" height="970" viewBox="0 0 1440 970" fill="none" xmlns="http://www.w3.org/2000/svg">
<mask id="mask0_110_97" style="mask-type:luminance" maskUnits="userSpaceOnUse" x="0" y="0" width="1440" height="970">
<path d="M0 3.09944e-05H1440V970H0V3.09944e-05Z" fill="white"/>
</mask>
<g mask="url(#mask0_110_97)">
<path d="M505.543 609.58C494.455 635.548 482.137 660.325 466.551 681.571C462.425 687.194 457.787 692.339 452.867 696.538C444.625 703.579 439.629 700.602 436.369 687.755C435.828 685.624 435.29 683.438 435.068 681.216C434.59 676.409 434.318 671.562 433.955 666.643C435.072 627.884 444.587 594.04 465.406 567.327C469.08 562.61 473.716 558.91 478.345 556.156C485.899 551.663 491.969 554.23 496.973 563.011C502.907 573.425 506.163 585.521 507.215 598.598C507.502 602.159 506.859 606.499 505.543 609.58ZM438.232 870.674C435.247 877.576 431.92 884.353 428.039 890.291C424.821 895.215 420.887 899.682 416.675 902.798C410.882 907.082 406.235 903.898 404.057 895.244C401.305 884.313 402.869 873.472 405.116 862.866C408.603 846.394 415.41 832.543 423.602 819.95C437.739 798.216 454.255 780.37 471.801 764.128C462.251 800.841 452.674 837.266 438.232 870.674ZM335.031 605.697C322.595 632.25 310.779 659.49 294.557 682.119C290.343 687.996 285.501 693.385 280.318 697.453C272.673 703.45 267.964 700.846 265.191 689.266C263.314 681.43 262.787 672.975 261.656 664.794C263.244 629.878 272.106 599.694 288.773 573.957C293.471 566.701 298.967 560.683 305.485 556.742C313.966 551.616 320.161 553.596 325.856 563.747C331.724 574.206 334.306 586.668 336.156 599.405C336.436 601.34 335.845 603.959 335.031 605.697ZM601.348 732.09C603.861 730.439 606.312 728.435 608.523 726.105C612.048 722.394 615.493 718.486 618.716 714.281C629.478 700.243 638.438 684.071 647.088 667.536C649.88 662.202 652.928 657.127 655.865 651.94C655.261 655.246 654.793 658.617 653.987 661.826C653.974 661.88 653.959 661.936 653.945 661.993C663.966 642.614 675.997 624.78 689.149 609.953C694.464 588.425 699.779 566.901 705.054 545.354C706.002 541.488 706.763 537.533 707.927 532.158C702.063 532.158 696.97 532.613 691.939 532.031C686.825 531.438 684.023 534.239 681.504 540.374C665.202 580.085 647.488 618.584 628.11 655.534C621.4 668.329 613.755 680.193 606.366 692.28C604.748 694.924 602.503 696.946 600.343 698.8C598.232 700.613 596.663 699.034 596.197 696.017C595.812 693.521 595.649 690.8 595.92 688.29C597.055 677.746 597.921 667.088 599.73 656.759C606.682 617.073 616.157 578.471 626.384 540.212C626.98 537.978 627.291 535.597 627.948 532.163C620.44 532.163 613.711 532.404 606.998 532.066C603.326 531.883 601.576 534.007 600.374 538.605C597.19 550.771 593.906 562.903 590.305 574.842C588.343 581.345 586.176 587.952 583.208 593.608C567.746 623.072 549.582 649.111 529.763 672.942C526.274 677.139 522.442 680.787 518.768 684.688C518.701 684.946 518.673 685.247 518.554 685.441C518.479 685.559 518.266 685.512 518.116 685.538C518.312 685.226 518.508 684.914 518.706 684.602C519.361 680.85 519.849 677.024 520.697 673.357C530.027 632.993 539.421 592.658 548.765 552.299C549.574 548.808 550.158 545.218 551.065 540.554C542.73 540.554 535.535 540.594 528.341 540.533C525.855 540.512 524.538 542.061 523.906 545.408C523.05 549.955 521.921 554.403 520.596 560.289C519.692 557.603 519.334 556.123 518.744 554.851C515.231 547.276 512.156 539.17 507.991 532.355C502.947 524.104 496.016 520.507 488.017 520.81C480.848 521.08 474.233 523.846 467.862 528.017C450.435 539.428 437.769 558.072 426.931 579.668C414.93 603.574 402.969 627.543 390.328 650.79C383.044 664.189 374.617 676.43 366.348 688.733C363.551 692.893 359.825 696.039 356.212 698.884C353.618 700.928 351.669 699.281 351.046 695.26C350.659 692.759 350.453 690.044 350.715 687.536C351.781 677.315 352.292 666.816 354.397 656.996C361.972 621.65 370.113 586.537 378.033 551.332C378.575 548.923 379.056 546.488 379.838 542.767C371.822 542.767 364.424 542.523 357.05 543.001C355.777 543.083 354.189 545.955 353.473 548.024C352.002 552.287 351.021 556.878 349.342 563.203C348.082 559.1 347.499 556.782 346.687 554.638C344.516 548.916 342.559 542.976 339.956 537.652C334.318 526.124 326.436 519.703 316.209 521.054C310.941 521.749 305.541 523.149 300.614 525.746C286.106 533.394 274.431 546.671 264.659 563.234C245.251 596.135 235.409 633.594 237.152 676.395C237.645 688.466 239.631 700.135 243.928 710.774C252.037 730.856 268.27 740.484 284.53 728.09C288.391 725.146 292.088 721.648 295.542 717.85C306.446 705.866 314.623 690.408 323.086 675.337C324.464 672.881 325.86 670.441 327.248 667.994C327.832 671.084 327.613 673.603 327.317 676.107C326.106 686.371 325.606 696.632 326.77 706.995C329.096 727.717 339.469 737.601 353.873 731.691C359.357 729.442 364.713 725.653 369.5 721.249C381.274 710.415 390.54 695.727 399.697 680.989C402.251 676.878 404.7 672.644 407.761 667.522C407.93 670.746 407.989 672.623 408.129 674.49C409.217 688.771 411.172 702.661 417.199 714.823C425.753 732.083 438.764 737.775 452.691 730.002C455.696 728.325 458.606 726.148 461.33 723.705C471.62 714.481 480.112 702.488 488.042 689.655C489.371 687.504 490.886 685.568 492.315 683.534C490.911 692.982 488.432 701.324 486.258 709.815C484.938 714.978 482.662 718.542 479.33 721.439C471.422 728.308 463.639 735.466 455.91 742.718C436.732 760.71 418.388 780.126 402.64 803.891C394.858 815.635 388.118 828.388 383.201 842.892C376.707 862.042 375.033 882.026 378.664 902.547C382.029 921.564 390.508 933.942 404.759 937.226C414.047 939.368 422.875 936.731 430.983 930.031C437.862 924.346 443.777 917.071 448.891 908.513C459.4 890.925 467.987 871.542 474.067 850.451C484.804 813.209 494.757 775.53 504.807 737.915C506.18 732.778 507.958 728.991 511.267 725.946C520.013 717.897 528.828 709.906 537.094 700.963C548.839 688.254 560.115 674.715 571.617 661.502C570.97 668.048 570.304 675.041 569.58 682.021C568.426 693.141 569.277 704.05 571.806 714.61C576.348 733.573 588.366 740.613 601.348 732.09Z" fill="black"/>
<path d="M101.262 470.988C100.466 472.544 99.5677 474.02 98.8905 475.669C80.3605 520.727 64.0094 567.268 50.1461 615.453C39.5848 652.162 30.0741 689.351 25.2486 728.514C24.1204 737.656 23.6593 746.794 24.7335 757.56C29.7954 753.288 32.844 748.404 35.1478 742.933C41.3819 728.131 47.8609 713.445 53.2234 698.032C72.0659 643.862 85.7416 587.153 94.516 528.258C97.3417 509.299 98.985 490.003 101.171 470.862C101.282 470.695 101.395 470.531 101.507 470.364C101.426 470.573 101.343 470.78 101.262 470.988ZM137.454 630.442C136.938 618.51 136.535 607.911 135.998 597.328C135.746 592.394 138.057 591.697 140.729 590.756C153.864 586.132 166.641 580.033 178.797 571.655C223.562 540.8 255.557 493.609 273.225 428.349C281.913 396.262 283.398 363.429 277.323 330.118C276.356 324.823 274.845 319.664 273.249 314.65C264.278 286.474 246.5 275.858 224.876 283.729C210.283 289.041 198.318 300.79 187.002 313.993C167.381 336.891 151.541 364.476 136.493 393.027C135.805 394.334 135.184 395.716 134.447 396.966C129.174 405.919 126.546 415.58 126.022 427.706C124.154 471.024 119.331 513.855 112.739 556.307C105.405 603.535 96.0192 649.891 82.8484 694.653C75.9573 718.076 68.1288 740.917 57.098 761.222C53.0512 768.671 48.4132 775.686 43.38 781.851C39.7993 786.236 35.3387 789.722 30.8578 792.111C20.0803 797.854 9.30113 792.11 4.39122 777.596C2.0773 770.754 0.800422 762.858 0.310613 755.282C-0.783855 738.395 1.17876 721.699 3.62442 705.173C11.0307 655.137 23.7488 607.552 38.5072 560.957C56.3869 504.513 77.3794 450.407 102.377 399.38C104.309 395.436 105.204 391.54 104.989 386.716C103.125 344.614 98.426 303.131 91.1886 262.186C90.1888 256.532 89.1027 250.906 88.0995 245.254C87.9981 244.68 88.1924 244.004 88.3579 242.153C95.8182 239.392 103.596 236.403 111.419 233.672C114.296 232.67 114.985 235.828 115.397 238.796C116.848 249.278 118.628 259.708 119.562 270.282C121.771 295.319 123.555 320.429 125.553 345.501C125.7 347.335 126.185 349.116 126.494 350.824C137.173 334.876 147.304 318.789 158.186 303.751C170.951 286.106 185.083 270.728 201.25 259.272C212.84 251.056 225.08 245.597 238.097 245.777C260.438 246.087 278.106 259.18 290.201 285.688C297.8 302.345 302.188 320.72 304.473 340.063C309.581 383.296 304.514 424.502 291.029 463.812C272.281 518.458 242.779 559.378 206.116 590.979C187.384 607.122 167.421 619.444 146.133 627.519C143.681 628.45 141.19 629.192 137.454 630.442Z" fill="black"/>
<path d="M790.367 541.689C787.443 531.54 782.015 525.445 774.195 523.883C768.865 522.818 764.085 525.415 759.587 529.1C749.978 536.974 741.131 552.364 733.517 563.313C726.312 573.675 713.221 588.359 715.866 596.08C719.938 607.958 723.78 617.654 728.964 611.214C736.907 601.347 749.463 581.305 757.173 567.674C762.144 558.888 767.86 560.357 767.365 571.949C766.937 581.903 765.009 591.146 763.59 600.803C767.777 602.731 772.43 606.846 770.226 614.159C768.047 621.387 766.62 628.896 765.525 636.526C765.566 637.661 765.441 638.855 765.091 640.094C765.059 640.207 765.025 640.319 764.993 640.432C763.779 649.842 762.968 659.39 761.82 668.779C759.553 687.292 754.919 706.769 759.023 725.385C759.188 726.138 759.29 726.863 759.342 727.562C761.994 726.949 762.605 724.976 764.235 718.551C770.582 693.516 777.033 668.519 782.873 643.257C788.149 620.434 792.146 597.133 793.553 573.11C794.188 562.271 793.271 551.77 790.367 541.689Z" fill="black"/>
<path d="M934.778 601.886C923.599 624.152 912.706 646.73 900.878 668.316C896.034 677.156 889.604 684.769 883.017 691.204C873.368 700.633 867.061 696.957 864.065 680.947C862.737 673.853 862.712 666.287 862.322 661.623C863.575 622.695 873.039 591.493 891.599 566.122C895.965 560.156 901.601 555.521 907.192 551.863C914.296 547.218 920.317 549.827 925.188 558.385C931.398 569.301 934.309 582.28 936.173 595.704C936.435 597.59 935.64 600.168 934.778 601.886ZM1045.93 584.637C1042.31 580.987 1038.46 576.825 1034.41 573.102C1031.06 570.033 1029.74 570.561 1027.45 574.908C1026.76 576.213 1026.27 577.71 1025.58 579.007C1010.75 606.887 996.188 635.042 980.942 662.47C975.29 672.638 968.158 681.266 961.449 690.233C959.206 693.229 956.206 697.332 952.899 694.59C949.587 691.842 949.861 686.106 950.383 681.295C951.32 672.666 952.323 664.018 953.774 655.535C959.926 619.57 968.735 584.736 977.354 549.824C978.152 546.599 978.798 543.302 979.844 538.535C971.558 538.535 964.379 538.287 957.228 538.763C955.914 538.85 954.254 541.566 953.531 543.603C951.879 548.255 950.709 553.236 949.609 557.139C945.493 547.664 941.887 537.832 937.229 529.074C932.729 520.612 925.994 516.816 918.292 516.642C910.654 516.468 903.501 519.101 896.703 523.654C876.391 537.259 862.042 559.277 851.195 586.2C848.92 591.849 846.861 597.735 844.152 602.96C830.625 629.046 815.849 653.7 798.985 675.772C793.571 682.855 787.734 689.442 781.637 695.352C776.241 700.581 773.124 698.144 773.604 689.032C774.146 678.751 775.28 668.434 776.937 658.381C779.948 640.112 783.596 622.116 787.608 604.269C786.574 603.063 785.807 601.412 785.555 599.246C785.123 595.542 785.072 592.457 785.29 588.727C785.459 585.829 786.312 583.568 787.532 581.942C787.908 579.978 788.307 578.024 788.726 576.081C788.197 575.509 787.729 574.843 787.329 574.09C786.099 573.653 784.953 572.83 784.018 571.647C782.916 572.614 781.686 573.172 780.445 573.322C777.217 577.67 771.588 577.203 769.069 572.386C763.198 603.917 756.307 633.123 750.142 664.675C746.774 681.79 743.731 696.204 747.766 713.719C751.901 729.456 762.131 737.25 773.915 733.738C782.11 731.296 789.015 725.316 795.64 718.634C808.745 705.421 819.965 689.398 830.726 672.713C832.547 669.888 834.374 667.073 836.881 663.202C837.087 668.49 837.139 672.267 837.397 676.014C838.33 689.463 841.081 702.038 846.976 713.011C855.026 727.997 868.215 733.665 880.573 726.259C886.258 722.852 891.651 717.881 896.46 712.405C906.803 700.626 914.985 685.97 923.006 671.197C924.396 668.638 925.889 666.184 927.335 663.68C928.017 666.507 927.705 668.365 927.465 670.242C925.742 683.741 924.784 697.168 928.294 710.51C932.245 725.536 940.85 732.126 952.055 728.41C958.97 726.118 965.374 722.09 970.804 715.826C977.43 708.183 984.107 700.448 989.953 691.706C1011.31 659.779 1028.93 623.908 1045.9 587.41C1046.11 586.972 1045.93 586.193 1045.93 584.637Z" fill="black"/>
<path d="M589.592 878.826C585.582 888.207 580.4 896.719 575.249 905.019C573.065 908.536 569.78 911.189 566.627 912.991C561.153 916.118 557.087 913.191 554.964 905.423C552.071 894.84 553.606 884.341 555.614 873.951C559.096 855.935 566.693 841.242 575.563 827.738C589.32 806.795 605.45 789.716 622.436 773.868C613.37 810.15 603.677 845.868 589.592 878.826ZM703.994 652.048C701.706 655.273 699.395 658.473 697.048 661.629C688.224 673.486 678.825 684.519 669.686 695.923C679.962 647.259 691.533 599.719 701.971 550.25C693.355 550.25 685.932 550.018 678.528 550.468C677.214 550.548 675.472 553.141 674.827 555.135C668.86 573.575 663.953 592.538 657.978 610.851C655.627 625.84 653.125 641.446 649.786 656.646C648.193 669.462 646.324 682.178 642.77 694.288C643.006 694.098 643.238 693.903 643.493 693.741C641.819 702.023 639.525 709.758 637.592 717.659C636.011 724.12 633.133 728.472 628.971 732.156C608.505 750.267 588.215 768.756 569.939 791.119C557.445 806.406 545.991 822.955 537.544 843.07C527.814 866.237 524.48 890.772 530.484 916.792C534.69 935.018 544.937 945.885 558.337 947.293C566.492 948.151 574.075 945.632 581.172 940.064C589.649 933.413 596.422 924.123 602.369 913.58C612.804 895.077 621.028 874.661 627.213 852.946C637.156 818.04 646.3 782.689 655.638 747.456C656.979 742.401 658.663 738.361 662.116 735.456C667.497 730.926 672.625 725.814 677.806 720.843C690.704 708.468 703.045 695.128 714.471 680.28C718.543 669.117 713.294 653.802 703.994 652.048Z" fill="black"/>
<path d="M678.103 7.35331e-05C503.135 7.35331e-05 361.295 197.019 361.295 440.05H395.649C395.649 223.372 522.107 47.7163 678.103 47.7163C834.098 47.7163 960.557 223.372 960.557 440.05H994.911C994.911 197.019 853.071 7.35331e-05 678.103 7.35331e-05Z" fill="#EFB6E9"/>
<path d="M678.103 7.35331e-05C503.135 7.35331e-05 361.295 197.019 361.295 440.05H395.649C395.649 223.372 522.107 47.7163 678.103 47.7163C834.098 47.7163 960.557 223.372 960.557 440.05H994.911C994.911 197.019 853.071 7.35331e-05 678.103 7.35331e-05Z" stroke="white" stroke-width="1.53467" stroke-miterlimit="10"/>
<path d="M678.103 47.7164C522.107 47.7164 395.649 223.372 395.649 440.05H430.001C430.001 249.725 541.08 95.4327 678.103 95.4327C815.126 95.4327 926.204 249.725 926.204 440.05H960.557C960.557 223.372 834.098 47.7164 678.103 47.7164Z" fill="#376CD3"/>
<path d="M678.103 47.7164C522.107 47.7164 395.649 223.372 395.649 440.05H430.001C430.001 249.725 541.08 95.4327 678.103 95.4327C815.126 95.4327 926.204 249.725 926.204 440.05H960.557C960.557 223.372 834.098 47.7164 678.103 47.7164Z" stroke="white" stroke-width="1.53467" stroke-miterlimit="10"/>
<path d="M678.103 95.4331C541.08 95.4331 430.001 249.723 430.001 440.051H468.531C468.531 279.281 562.36 148.951 678.103 148.951C793.846 148.951 887.675 279.281 887.675 440.051H926.204C926.204 249.723 815.126 95.4331 678.103 95.4331Z" fill="#BBDDF2"/>
<path d="M678.103 95.4331C541.08 95.4331 430.001 249.723 430.001 440.051H468.531C468.531 279.281 562.36 148.951 678.103 148.951C793.846 148.951 887.675 279.281 887.675 440.051H926.204C926.204 249.723 815.126 95.4331 678.103 95.4331Z" stroke="white" stroke-width="1.53467" stroke-miterlimit="10"/>
<path d="M678.103 148.951C562.359 148.951 468.531 279.28 468.531 440.05H502.848C502.848 305.608 581.312 196.618 678.103 196.618C774.894 196.618 853.358 305.608 853.358 440.05H887.675C887.675 279.28 793.846 148.951 678.103 148.951Z" fill="#8ABF80"/>
<path d="M678.103 148.951C562.359 148.951 468.531 279.28 468.531 440.05H502.848C502.848 305.608 581.312 196.618 678.103 196.618C774.894 196.618 853.358 305.608 853.358 440.05H887.675C887.675 279.28 793.846 148.951 678.103 148.951Z" stroke="white" stroke-width="1.53467" stroke-miterlimit="10"/>
<path d="M678.103 196.618C581.312 196.618 502.848 305.606 502.848 440.051H540.575C540.575 334.549 602.149 249.022 678.103 249.022C754.057 249.022 815.631 334.549 815.631 440.051H853.358C853.358 305.606 774.894 196.618 678.103 196.618Z" fill="#EFC889"/>
<path d="M678.103 196.618C581.312 196.618 502.848 305.606 502.848 440.051H540.575C540.575 334.549 602.149 249.022 678.103 249.022C754.057 249.022 815.631 334.549 815.631 440.051H853.358C853.358 305.606 774.894 196.618 678.103 196.618Z" stroke="white" stroke-width="1.53467" stroke-miterlimit="10"/>
<path d="M678.103 249.023C602.149 249.023 540.575 334.548 540.575 440.052H576.848C576.848 362.375 622.182 299.407 678.103 299.407C734.024 299.407 779.358 362.375 779.358 440.052H815.631C815.631 334.548 754.057 249.023 678.103 249.023Z" fill="#F29A68"/>
<path d="M678.103 249.023C602.149 249.023 540.575 334.548 540.575 440.052H576.848C576.848 362.375 622.182 299.407 678.103 299.407C734.024 299.407 779.358 362.375 779.358 440.052H815.631C815.631 334.548 754.057 249.023 678.103 249.023Z" stroke="white" stroke-width="1.53467" stroke-miterlimit="10"/>
<path d="M678.103 299.407C622.182 299.407 576.848 362.375 576.848 440.052H612.886C613.916 392.09 642.21 353.643 676.988 353.643C711.766 353.643 740.06 392.09 741.091 440.052H779.358C779.358 362.375 734.024 299.407 678.103 299.407Z" fill="#E04E36"/>
<path d="M678.103 299.407C622.182 299.407 576.848 362.375 576.848 440.052H612.886C613.916 392.09 642.21 353.643 676.988 353.643C711.766 353.643 740.06 392.09 741.091 440.052H779.358C779.358 362.375 734.024 299.407 678.103 299.407Z" stroke="white" stroke-width="1.53467" stroke-miterlimit="10"/>
<path d="M742.633 856.894L744.493 869.691L740.519 870.806L739.401 863.101L718.656 868.915L713.986 836.767L718.178 835.594L722.109 862.644L734.774 859.094L730.844 832.042L735.035 830.867L738.965 857.919L742.633 856.894Z" fill="black"/>
<path d="M750.084 834.602C748.923 836.621 748.388 839.043 748.481 841.865L763.425 838.463C762.871 835.791 761.809 833.743 760.243 832.321C758.676 830.904 756.88 830.423 754.859 830.881C752.837 831.341 751.244 832.582 750.084 834.602ZM767.879 841.778L748.977 846.078C749.575 848.868 750.748 850.953 752.491 852.333C754.232 853.712 756.247 854.142 758.534 853.621C761.317 852.99 763.407 851.176 764.798 848.185L767.575 851.441C766.722 853.391 765.563 854.991 764.099 856.246C762.638 857.497 760.939 858.341 759.005 858.782C756.544 859.343 754.278 859.136 752.207 858.165C750.134 857.194 748.43 855.566 747.093 853.276C745.755 850.989 744.9 848.258 744.525 845.084C744.155 841.949 744.329 839.005 745.042 836.248C745.755 833.494 746.915 831.216 748.523 829.407C750.131 827.601 752.048 826.442 754.274 825.938C756.502 825.428 758.573 825.68 760.48 826.688C762.39 827.697 763.983 829.351 765.263 831.65C766.543 833.954 767.374 836.729 767.761 839.988C767.813 840.436 767.854 841.032 767.879 841.778Z" fill="black"/>
<path d="M772.991 822.193L777.233 821.449L778.488 835.261L791.835 832.922L790.58 819.11L794.824 818.364L797.78 850.902L793.537 851.648L792.299 838.017L778.951 840.356L780.189 853.987L775.946 854.728L772.991 822.193Z" fill="black"/>
<path d="M821.508 820.042L812.902 821.149L814.733 848.628L810.475 849.175L808.645 821.696L800.039 822.801L799.693 817.625L821.163 814.866L821.508 820.042Z" fill="black"/>
<path d="M843.398 839.493C844.558 838.43 845.448 836.994 846.071 835.186C846.694 833.379 846.958 831.343 846.865 829.079C846.769 826.815 846.335 824.835 845.564 823.139C844.794 821.447 843.789 820.176 842.55 819.324C841.31 818.475 839.932 818.111 838.42 818.233C836.937 818.353 835.618 818.946 834.456 820.011C833.297 821.076 832.404 822.503 831.781 824.291C831.156 826.074 830.892 828.103 830.987 830.364C831.083 832.631 831.507 834.611 832.262 836.307C833.017 838.001 834.024 839.282 835.28 840.15C836.537 841.02 837.907 841.396 839.39 841.276C840.899 841.152 842.237 840.558 843.398 839.493ZM844.782 814.618C846.651 815.873 848.149 817.715 849.277 820.143C850.405 822.571 851.039 825.435 851.177 828.727C851.316 832.023 850.927 834.977 850.01 837.593C849.094 840.211 847.76 842.289 846.012 843.838C844.262 845.384 842.244 846.25 839.962 846.435C838.273 846.573 836.704 846.245 835.258 845.452C833.811 844.661 832.563 843.441 831.512 841.79L832.223 858.714L827.953 859.061L826.073 814.336L830.166 814.008L830.384 819.195C831.257 817.306 832.399 815.84 833.812 814.796C835.226 813.75 836.809 813.156 838.559 813.015C840.84 812.83 842.916 813.365 844.782 814.618Z" fill="black"/>
<path d="M885.835 838.109C887.038 837.138 887.985 835.772 888.683 834.018C889.377 832.263 889.723 830.25 889.72 827.984C889.718 825.715 889.365 823.702 888.666 821.95C887.965 820.199 887.012 818.853 885.808 817.907C884.604 816.96 883.246 816.488 881.731 816.493C880.244 816.497 878.903 816.985 877.702 817.957C876.5 818.93 875.551 820.282 874.855 822.018C874.159 823.751 873.814 825.753 873.816 828.021C873.819 830.292 874.164 832.3 874.848 834.053C875.534 835.805 876.486 837.164 877.706 838.13C878.924 839.097 880.277 839.578 881.761 839.573C883.276 839.568 884.634 839.08 885.835 838.109ZM888.23 813.382C890.044 814.782 891.464 816.737 892.491 819.249C893.522 821.764 894.037 824.669 894.04 827.972C894.045 831.27 893.538 834.191 892.517 836.73C891.495 839.27 890.079 841.243 888.269 842.651C886.46 844.059 884.411 844.765 882.124 844.77C880.432 844.774 878.88 844.324 877.468 843.421C876.056 842.517 874.858 841.199 873.877 839.47L873.899 856.425L869.621 856.436L869.562 811.636L873.661 811.625L873.667 816.823C874.615 815.005 875.816 813.631 877.272 812.699C878.724 811.765 880.327 811.299 882.08 811.294C884.367 811.287 886.418 811.984 888.23 813.382Z" fill="black"/>
<path d="M905.194 819.375C903.765 821.034 902.896 823.258 902.58 826.047L917.715 826.854C917.553 824.081 916.808 821.78 915.477 819.955C914.144 818.129 912.455 817.163 910.408 817.053C908.359 816.942 906.623 817.717 905.194 819.375ZM921.605 831.335L902.463 830.315C902.649 833.212 903.499 835.582 905.009 837.414C906.517 839.253 908.43 840.232 910.744 840.354C913.563 840.504 915.87 839.305 917.666 836.759L919.919 840.72C918.803 842.395 917.438 843.643 915.825 844.464C914.212 845.287 912.427 845.644 910.467 845.541C907.974 845.409 905.784 844.579 903.892 843.054C902.004 841.529 900.568 839.462 899.585 836.849C898.602 834.237 898.155 831.324 898.244 828.11C898.332 824.933 898.921 822.097 900.018 819.596C901.11 817.093 902.575 815.18 904.411 813.853C906.245 812.527 908.29 811.924 910.545 812.044C912.802 812.163 914.793 812.982 916.519 814.498C918.245 816.013 919.571 818.078 920.495 820.687C921.417 823.295 921.834 826.249 921.743 829.545C921.73 829.998 921.684 830.594 921.605 831.335Z" fill="black"/>
<path d="M948.23 815.629L946.408 848.328L942.143 847.869L942.88 834.665C940.242 836.038 937.664 836.589 935.148 836.317C932.217 836.002 930.003 834.813 928.51 832.748C927.015 830.684 926.377 827.761 926.588 823.977L927.177 813.365L931.442 813.823L930.871 824.066C930.744 826.33 931.161 828.091 932.117 829.351C933.075 830.613 934.472 831.341 936.306 831.538C938.38 831.763 940.657 831.284 943.133 830.102L943.967 815.172L948.23 815.629Z" fill="black"/>
<path d="M957.152 816.793L961.4 817.504L959.345 841.218L975.774 819.906L979.621 820.552L976.8 853.11L972.554 852.401L974.608 828.685L958.225 850.004L954.332 849.354L957.152 816.793Z" fill="black"/>
<path d="M1000.73 825.046L1004.93 826.144L1001.75 849.618L1019.16 829.857L1022.97 830.852L1018.61 863.082L1014.4 861.984L1017.58 838.512L1000.22 858.282L996.365 857.276L1000.73 825.046Z" fill="black"/>
<path d="M1043.88 837.355L1048.01 838.859L1045.48 852.33L1058.5 857.053L1061.03 843.582L1065.17 845.086L1059.2 876.813L1055.06 875.314L1057.56 862.024L1044.54 857.297L1042.05 870.589L1037.91 869.086L1043.88 837.355Z" fill="black"/>
<path d="M1076.67 857.487C1074.98 858.561 1073.71 860.384 1072.88 862.96L1087.32 869.297C1087.69 866.564 1087.41 864.072 1086.48 861.822C1085.54 859.573 1084.09 858.02 1082.14 857.161C1080.19 856.302 1078.36 856.412 1076.67 857.487ZM1090.22 875.045L1071.95 867.031C1071.58 869.898 1071.95 872.492 1073.06 874.817C1074.16 877.142 1075.82 878.787 1078.03 879.756C1080.72 880.936 1083.17 880.628 1085.39 878.834L1086.81 883.476C1085.41 884.682 1083.86 885.386 1082.15 885.588C1080.43 885.787 1078.64 885.478 1076.77 884.657C1074.4 883.613 1072.44 882.008 1070.91 879.842C1069.38 877.677 1068.38 875.157 1067.93 872.276C1067.48 869.398 1067.61 866.423 1068.3 863.354C1068.99 860.326 1070.1 857.808 1071.64 855.795C1073.17 853.787 1074.94 852.478 1076.97 851.871C1078.99 851.268 1081.07 851.437 1083.23 852.38C1085.38 853.327 1087.14 854.845 1088.52 856.943C1089.89 859.038 1090.78 861.515 1091.18 864.37C1091.57 867.225 1091.41 870.226 1090.69 873.372C1090.59 873.806 1090.44 874.362 1090.22 875.045Z" fill="black"/>
<path d="M1108.53 857.785C1107.76 855.819 1107.71 853.534 1108.38 850.932L1111.09 852.347C1110.73 853.789 1110.78 855.122 1111.23 856.349C1111.67 857.571 1112.46 858.481 1113.61 859.075C1114.75 859.671 1115.78 859.713 1116.71 859.206C1117.64 858.702 1118.31 857.74 1118.72 856.325L1121.52 857.782C1120.79 860.356 1119.66 862.024 1118.12 862.786C1116.58 863.549 1114.8 863.401 1112.77 862.341C1110.71 861.266 1109.3 859.751 1108.53 857.785ZM1101.35 860.945L1105.35 863.033L1099.31 885.395L1118.91 870.101L1122.53 871.995L1114.24 902.697L1110.23 900.609L1116.27 878.247L1096.72 893.562L1093.05 891.65L1101.35 860.945Z" fill="black"/>
<path d="M1138.27 910.06C1139.65 909.807 1140.91 909.053 1142.03 907.805C1143.16 906.557 1144.04 904.887 1144.66 902.79C1145.29 900.697 1145.52 898.653 1145.36 896.659C1145.2 894.67 1144.7 892.915 1143.85 891.4C1143 889.882 1141.87 888.72 1140.48 887.916C1139.1 887.125 1137.73 886.855 1136.35 887.111C1134.97 887.367 1133.72 888.108 1132.6 889.337C1131.48 890.564 1130.6 892.228 1129.98 894.323C1129.35 896.42 1129.11 898.459 1129.26 900.441C1129.4 902.424 1129.91 904.188 1130.76 905.731C1131.62 907.275 1132.74 908.444 1134.11 909.232C1135.51 910.039 1136.9 910.313 1138.27 910.06ZM1147.34 888.519C1148.62 890.778 1149.39 893.344 1149.64 896.216C1149.9 899.083 1149.57 902.044 1148.66 905.091C1147.74 908.141 1146.47 910.562 1144.82 912.359C1143.17 914.156 1141.32 915.221 1139.26 915.554C1137.2 915.883 1135.11 915.442 1133 914.222C1131.44 913.323 1130.13 912.075 1129.08 910.489C1128.02 908.899 1127.29 907.043 1126.86 904.922L1122.18 920.58L1118.23 918.304L1130.59 876.924L1134.38 879.109L1132.94 883.909C1134.32 882.738 1135.81 882.112 1137.41 882.029C1139.01 881.947 1140.62 882.37 1142.24 883.303C1144.35 884.521 1146.05 886.259 1147.34 888.519Z" fill="black"/>
<path d="M1165.78 924.413C1167.15 924.045 1168.36 923.184 1169.42 921.835C1170.47 920.488 1171.27 918.741 1171.8 916.596C1172.34 914.452 1172.49 912.397 1172.25 910.429C1172.02 908.463 1171.44 906.759 1170.53 905.314C1169.62 903.874 1168.44 902.811 1167.01 902.124C1165.58 901.436 1164.18 901.272 1162.82 901.621C1161.46 901.976 1160.25 902.82 1159.18 904.16C1158.1 905.502 1157.3 907.247 1156.77 909.392C1156.24 911.536 1156.09 913.596 1156.34 915.566C1156.59 917.542 1157.17 919.259 1158.08 920.721C1158.99 922.182 1160.16 923.257 1161.59 923.942C1163.02 924.629 1164.42 924.786 1165.78 924.413ZM1154.9 923.942C1153.47 921.727 1152.55 919.184 1152.15 916.308C1151.75 913.431 1151.93 910.475 1152.68 907.433C1153.44 904.39 1154.61 901.908 1156.21 899.989C1157.8 898.07 1159.65 896.859 1161.75 896.362C1163.85 895.864 1166.01 896.146 1168.23 897.209C1170.45 898.271 1172.27 899.899 1173.69 902.084C1175.11 904.27 1176.02 906.802 1176.42 909.678C1176.82 912.554 1176.64 915.512 1175.89 918.555C1175.13 921.596 1173.96 924.075 1172.36 925.999C1170.77 927.918 1168.93 929.141 1166.84 929.664C1164.74 930.189 1162.59 929.919 1160.37 928.857C1158.15 927.792 1156.33 926.154 1154.9 923.942Z" fill="black"/>
<path d="M1190.71 926.876L1185.98 925.119L1183.4 938.51L1179.27 936.978L1185.36 905.292L1189.49 906.824L1186.92 920.218L1191.74 922.006L1201.72 911.362L1206.15 913.006L1194.57 925.041L1200.66 944.912L1195.8 943.108L1190.71 926.876Z" fill="black"/>
<path d="M1220.39 943.876C1221.7 943.238 1222.81 942.147 1223.72 940.601C1224.62 939.057 1225.23 937.173 1225.54 934.942C1225.84 932.713 1225.78 930.649 1225.35 928.751C1224.91 926.851 1224.17 925.276 1223.12 924.031C1222.06 922.787 1220.79 921.966 1219.3 921.57C1217.82 921.175 1216.42 921.288 1215.11 921.907C1213.8 922.524 1212.68 923.604 1211.76 925.145C1210.84 926.686 1210.22 928.57 1209.92 930.799C1209.61 933.025 1209.68 935.092 1210.13 936.995C1210.58 938.9 1211.33 940.486 1212.38 941.75C1213.43 943.017 1214.7 943.845 1216.19 944.242C1217.68 944.636 1219.07 944.514 1220.39 943.876ZM1209.56 945.572C1207.92 943.665 1206.75 941.328 1206.06 938.562C1205.37 935.796 1205.24 932.831 1205.67 929.671C1206.11 926.51 1207.01 923.822 1208.39 921.605C1209.77 919.388 1211.47 917.825 1213.51 916.915C1215.54 916.002 1217.7 915.855 1220.01 916.465C1222.31 917.077 1224.28 918.323 1225.91 920.204C1227.54 922.088 1228.7 924.411 1229.4 927.179C1230.09 929.945 1230.22 932.908 1229.78 936.071C1229.35 939.231 1228.44 941.919 1227.06 944.134C1225.68 946.353 1223.99 947.93 1221.97 948.863C1219.95 949.797 1217.79 949.959 1215.48 949.347C1213.18 948.734 1211.2 947.477 1209.56 945.572Z" fill="black"/>
<path d="M1251.88 949.863C1253.15 949.077 1254.2 947.864 1255.02 946.221C1255.85 944.584 1256.35 942.634 1256.53 940.377C1256.7 938.123 1256.51 936.072 1255.95 934.226C1255.39 932.38 1254.55 930.895 1253.42 929.773C1252.3 928.654 1250.99 927.981 1249.48 927.758C1248 927.538 1246.63 927.821 1245.36 928.607C1244.09 929.393 1243.04 930.597 1242.21 932.218C1241.39 933.837 1240.89 935.775 1240.71 938.031C1240.54 940.288 1240.72 942.336 1241.27 944.18C1241.82 946.024 1242.65 947.519 1243.79 948.661C1244.93 949.809 1246.24 950.489 1247.71 950.707C1249.22 950.93 1250.61 950.651 1251.88 949.863ZM1256.18 925.642C1257.88 927.303 1259.14 929.461 1259.96 932.115C1260.79 934.766 1261.08 937.736 1260.82 941.016C1260.57 944.298 1259.84 947.125 1258.62 949.497C1257.41 951.866 1255.85 953.619 1253.94 954.745C1252.03 955.873 1249.94 956.265 1247.67 955.929C1245.99 955.678 1244.48 954.998 1243.14 953.888C1241.81 952.776 1240.72 951.287 1239.88 949.421L1238.58 966.278L1234.33 965.649L1237.76 921.1L1241.83 921.705L1241.44 926.874C1242.52 925.21 1243.82 924.023 1245.34 923.317C1246.86 922.609 1248.49 922.383 1250.23 922.641C1252.5 922.979 1254.49 923.981 1256.18 925.642Z" fill="black"/>
<path d="M1283.73 952.053C1284.94 951.117 1285.91 949.782 1286.63 948.048C1287.35 946.314 1287.73 944.313 1287.77 942.045C1287.8 939.778 1287.48 937.756 1286.81 935.982C1286.14 934.213 1285.2 932.836 1284.02 931.853C1282.83 930.873 1281.47 930.359 1279.96 930.317C1278.48 930.277 1277.12 930.723 1275.91 931.661C1274.69 932.595 1273.72 933.92 1273 935.633C1272.28 937.343 1271.9 939.337 1271.87 941.603C1271.83 943.874 1272.15 945.892 1272.8 947.666C1273.46 949.437 1274.39 950.826 1275.6 951.825C1276.8 952.829 1278.14 953.352 1279.63 953.392C1281.14 953.435 1282.51 952.986 1283.73 952.053ZM1286.51 927.403C1288.3 928.855 1289.69 930.856 1290.68 933.399C1291.66 935.945 1292.13 938.866 1292.09 942.164C1292.04 945.465 1291.49 948.369 1290.43 950.875C1289.36 953.383 1287.92 955.316 1286.09 956.667C1284.25 958.019 1282.2 958.662 1279.91 958.601C1278.22 958.554 1276.67 958.056 1275.28 957.108C1273.88 956.163 1272.7 954.812 1271.75 953.052L1271.5 970L1267.23 969.885L1267.87 925.092L1271.97 925.207L1271.89 930.401C1272.87 928.616 1274.09 927.276 1275.56 926.389C1277.03 925.503 1278.64 925.083 1280.39 925.13C1282.68 925.193 1284.72 925.953 1286.51 927.403Z" fill="black"/>
<path d="M1302.98 932.297C1301.68 934.146 1300.98 936.48 1300.86 939.3L1315.98 937.986C1315.62 935.248 1314.71 933.064 1313.25 931.434C1311.8 929.805 1310.05 929.078 1308 929.256C1305.95 929.432 1304.28 930.448 1302.98 932.297ZM1320.17 941.899L1301.06 943.563C1301.45 946.422 1302.47 948.658 1304.1 950.272C1305.74 951.886 1307.71 952.593 1310.03 952.391C1312.84 952.147 1315.05 950.631 1316.65 947.847L1319.18 951.471C1318.19 953.292 1316.92 954.727 1315.38 955.769C1313.83 956.813 1312.08 957.421 1310.13 957.59C1307.64 957.808 1305.4 957.289 1303.4 956.037C1301.41 954.784 1299.83 952.928 1298.67 950.465C1297.5 948.004 1296.84 945.167 1296.7 941.956C1296.56 938.788 1296.94 935.882 1297.85 933.238C1298.75 930.596 1300.07 928.489 1301.8 926.913C1303.53 925.336 1305.52 924.449 1307.77 924.252C1310.03 924.058 1312.07 924.593 1313.89 925.859C1315.72 927.126 1317.19 928.994 1318.3 931.459C1319.41 933.925 1320.03 936.806 1320.18 940.1C1320.2 940.555 1320.2 941.151 1320.17 941.899Z" fill="black"/>
<path d="M1336.61 939.557L1331.75 940.493L1333.12 954.222L1328.89 955.041L1325.64 922.555L1329.88 921.739L1331.25 935.468L1336.19 934.516L1342.41 919.323L1346.95 918.445L1339.65 935.787L1350.82 950.811L1345.83 951.773L1336.61 939.557Z" fill="black"/>
<path d="M1380.53 936.703L1382.54 949.458L1378.58 950.659L1377.37 942.983L1356.7 949.249L1351.66 917.207L1355.84 915.94L1360.08 942.906L1372.7 939.079L1368.46 912.116L1372.64 910.847L1376.88 937.812L1380.53 936.703Z" fill="black"/>
<path d="M1381.23 907.792L1385.32 906.07L1390.3 928.932L1399.18 900.245L1402.89 898.684L1409.73 930.075L1405.64 931.794L1400.66 908.934L1391.82 937.603L1388.07 939.18L1381.23 907.792Z" fill="black"/>
<path d="M1410.38 895.092L1414.36 892.95L1420.57 915.226L1427.87 885.696L1431.48 883.754L1440 914.342L1436.01 916.484L1429.81 894.208L1422.55 923.716L1418.89 925.68L1410.38 895.092Z" fill="black"/>
</g>
</svg>
