<svg width="827" height="540" viewBox="0 0 827 540" fill="none" xmlns="http://www.w3.org/2000/svg">
<path d="M399.874 347.663C391.121 362.421 381.397 376.503 369.093 388.577C365.835 391.773 362.174 394.697 358.29 397.084C351.783 401.085 347.839 399.393 345.266 392.092C344.839 390.881 344.414 389.639 344.239 388.376C343.862 385.644 343.647 382.889 343.361 380.093C344.242 358.065 351.754 338.831 368.189 323.649C371.089 320.968 374.749 318.865 378.403 317.3C384.366 314.747 389.158 316.205 393.109 321.196C397.793 327.115 400.363 333.989 401.194 341.421C401.421 343.445 400.913 345.912 399.874 347.663ZM346.737 496.051C344.381 499.973 341.754 503.825 338.69 507.2C336.15 509.999 333.045 512.537 329.719 514.308C325.146 516.743 321.478 514.933 319.758 510.015C317.586 503.803 318.821 497.641 320.594 491.613C323.347 482.252 328.721 474.38 335.187 467.223C346.347 454.871 359.386 444.728 373.237 435.497C365.698 456.363 358.138 477.064 346.737 496.051ZM265.267 345.456C255.45 360.547 246.122 376.028 233.317 388.889C229.99 392.229 226.167 395.292 222.075 397.604C216.041 401.012 212.323 399.532 210.134 392.951C208.653 388.497 208.237 383.692 207.343 379.043C208.597 359.199 215.593 342.044 228.75 327.417C232.459 323.293 236.798 319.873 241.943 317.633C248.638 314.72 253.529 315.845 258.025 321.615C262.657 327.559 264.695 334.641 266.155 341.88C266.377 342.98 265.91 344.468 265.267 345.456ZM475.505 417.289C477.489 416.351 479.423 415.212 481.169 413.888C483.951 411.779 486.671 409.557 489.215 407.168C497.711 399.189 504.785 389.999 511.613 380.601C513.817 377.569 516.223 374.685 518.542 371.737C518.065 373.616 517.695 375.532 517.059 377.356C517.049 377.387 517.037 377.419 517.026 377.451C524.937 366.437 534.434 356.301 544.817 347.875C549.013 335.64 553.209 323.407 557.373 311.161C558.121 308.964 558.722 306.716 559.641 303.661C555.011 303.661 550.991 303.92 547.019 303.589C542.982 303.252 540.77 304.844 538.782 308.331C525.913 330.9 511.929 352.78 496.631 373.78C491.334 381.052 485.299 387.795 479.466 394.664C478.189 396.167 476.417 397.316 474.711 398.369C473.045 399.4 471.806 398.503 471.438 396.788C471.134 395.369 471.006 393.823 471.219 392.396C472.115 386.404 472.799 380.347 474.227 374.476C479.715 351.921 487.195 329.983 495.269 308.239C495.739 306.969 495.985 305.616 496.503 303.664C490.577 303.664 485.265 303.801 479.965 303.609C477.066 303.505 475.685 304.712 474.735 307.325C472.222 314.24 469.63 321.135 466.787 327.92C465.238 331.616 463.527 335.371 461.185 338.585C448.978 355.331 434.639 370.129 418.994 383.673C416.239 386.059 413.214 388.132 410.314 390.349C410.261 390.496 410.239 390.667 410.145 390.777C410.086 390.844 409.918 390.817 409.799 390.832C409.954 390.655 410.109 390.477 410.265 390.3C410.782 388.168 411.167 385.993 411.837 383.909C419.202 360.969 426.618 338.045 433.994 315.108C434.633 313.124 435.094 311.084 435.81 308.433C429.23 308.433 423.55 308.456 417.871 308.421C415.909 308.409 414.869 309.289 414.37 311.192C413.694 313.776 412.803 316.304 411.757 319.649C411.043 318.123 410.761 317.281 410.295 316.559C407.522 312.253 405.094 307.647 401.806 303.773C397.825 299.084 392.353 297.04 386.038 297.212C380.379 297.365 375.157 298.937 370.127 301.308C356.37 307.793 346.371 318.389 337.815 330.663C328.342 344.249 318.899 357.872 308.921 371.084C303.17 378.699 296.518 385.656 289.99 392.648C287.782 395.012 284.841 396.8 281.989 398.417C279.941 399.579 278.402 398.643 277.91 396.357C277.605 394.936 277.442 393.393 277.649 391.968C278.49 386.159 278.894 380.192 280.555 374.611C286.535 354.523 292.962 334.567 299.214 314.559C299.642 313.189 300.022 311.805 300.639 309.691C294.311 309.691 288.471 309.552 282.65 309.824C281.645 309.871 280.391 311.503 279.826 312.679C278.665 315.101 277.89 317.711 276.565 321.305C275.57 318.973 275.11 317.656 274.469 316.437C272.755 313.185 271.21 309.809 269.155 306.784C264.705 300.232 258.482 296.583 250.409 297.351C246.25 297.745 241.987 298.541 238.098 300.017C226.645 304.364 217.429 311.909 209.714 321.323C194.393 340.021 186.623 361.311 187.999 385.636C188.389 392.496 189.957 399.128 193.349 405.175C199.75 416.588 212.565 422.06 225.401 415.016C228.449 413.343 231.367 411.355 234.094 409.196C242.702 402.385 249.157 393.6 255.838 385.035C256.926 383.639 258.027 382.252 259.123 380.861C259.585 382.617 259.411 384.049 259.178 385.472C258.222 391.305 257.827 397.137 258.746 403.027C260.582 414.804 268.771 420.421 280.142 417.063C284.471 415.784 288.699 413.631 292.478 411.128C301.773 404.971 309.087 396.623 316.317 388.247C318.333 385.911 320.266 383.504 322.682 380.593C322.815 382.425 322.862 383.492 322.973 384.553C323.831 392.669 325.375 400.564 330.133 407.476C336.886 417.285 347.157 420.52 358.151 416.103C360.523 415.149 362.821 413.912 364.971 412.524C373.094 407.281 379.798 400.465 386.058 393.172C387.107 391.949 388.303 390.849 389.431 389.693C388.323 395.063 386.366 399.804 384.65 404.629C383.607 407.564 381.811 409.589 379.181 411.236C372.938 415.14 366.794 419.208 360.693 423.329C345.553 433.555 331.071 444.589 318.639 458.096C312.497 464.771 307.175 472.019 303.294 480.261C298.167 491.145 296.846 502.503 299.713 514.165C302.369 524.973 309.062 532.008 320.313 533.875C327.645 535.092 334.614 533.593 341.014 529.785C346.445 526.555 351.114 522.42 355.151 517.556C363.447 507.56 370.226 496.544 375.026 484.557C383.502 463.392 391.359 441.977 399.293 420.6C400.377 417.68 401.781 415.528 404.393 413.797C411.297 409.223 418.255 404.681 424.781 399.599C434.053 392.376 442.954 384.681 452.034 377.172C451.523 380.892 450.998 384.867 450.426 388.833C449.515 395.153 450.187 401.353 452.183 407.355C455.769 418.132 465.257 422.133 475.505 417.289Z" fill="white"/>
<path d="M80.7242 268.897C80.0962 269.781 79.3869 270.619 78.8522 271.557C64.2242 297.165 51.3162 323.615 40.3722 351.001C32.0349 371.863 24.5269 392.999 20.7175 415.257C19.8269 420.453 19.4629 425.646 20.3109 431.765C24.3069 429.337 26.7135 426.561 28.5322 423.451C33.4535 415.039 38.5682 406.693 42.8015 397.933C57.6762 367.146 68.4722 334.917 75.3989 301.445C77.6295 290.67 78.9269 279.703 80.6522 268.825C80.7402 268.73 80.8295 268.637 80.9175 268.542C80.8535 268.661 80.7882 268.778 80.7242 268.897ZM109.295 359.519C108.888 352.738 108.57 346.714 108.146 340.699C107.947 337.895 109.771 337.499 111.88 336.965C122.25 334.337 132.336 330.87 141.932 326.109C177.271 308.573 202.528 281.753 216.476 244.663C223.335 226.427 224.507 207.767 219.711 188.835C218.948 185.826 217.755 182.894 216.495 180.045C209.414 164.031 195.379 157.998 178.308 162.471C166.788 165.49 157.343 172.167 148.41 179.671C132.92 192.685 120.416 208.362 108.536 224.589C107.994 225.331 107.503 226.117 106.922 226.827C102.759 231.915 100.684 237.406 100.271 244.298C98.7962 268.917 94.9882 293.259 89.7842 317.386C83.9948 344.227 76.5855 370.573 66.1882 396.013C60.7482 409.325 54.5682 422.306 45.8602 433.846C42.6655 438.079 39.0042 442.066 35.0309 445.57C32.2042 448.062 28.6829 450.043 25.1455 451.401C16.6375 454.665 8.12818 451.401 4.25218 443.151C2.42552 439.263 1.41752 434.775 1.03085 430.47C0.16685 420.873 1.71619 411.383 3.64685 401.991C9.49352 373.554 19.5335 346.51 31.1842 320.029C45.2989 287.95 61.8709 257.199 81.6042 228.199C83.1295 225.958 83.8362 223.743 83.6669 221.002C82.1949 197.074 78.4855 173.498 72.7722 150.227C71.9829 147.014 71.1255 143.817 70.3335 140.605C70.2535 140.278 70.4069 139.894 70.5375 138.842C76.4269 137.273 82.5669 135.574 88.7429 134.022C91.0135 133.453 91.5575 135.247 91.8829 136.934C93.0282 142.891 94.4335 148.819 95.1709 154.829C96.9149 169.058 98.3229 183.329 99.9002 197.578C100.016 198.621 100.399 199.633 100.643 200.603C109.074 191.539 117.071 182.397 125.662 173.85C135.739 163.822 146.895 155.082 159.658 148.571C168.807 143.902 178.47 140.799 188.746 140.902C206.382 141.078 220.33 148.519 229.878 163.585C235.876 173.051 239.34 183.494 241.144 194.487C245.176 219.058 241.176 242.477 230.531 264.818C215.731 295.875 192.442 319.131 163.499 337.091C148.711 346.266 132.952 353.269 116.147 357.858C114.211 358.387 112.244 358.809 109.295 359.519Z" fill="white"/>
<path d="M624.721 309.078C622.413 303.31 618.127 299.846 611.954 298.958C607.746 298.353 603.973 299.829 600.422 301.923C592.837 306.398 585.853 315.145 579.842 321.367C574.154 327.257 563.819 335.602 565.907 339.99C569.122 346.741 572.155 352.251 576.247 348.591C582.518 342.983 592.43 331.593 598.517 323.846C602.441 318.853 606.953 319.687 606.562 326.275C606.225 331.933 604.702 337.186 603.582 342.674C606.887 343.77 610.561 346.109 608.821 350.265C607.101 354.373 605.974 358.641 605.11 362.977C605.142 363.622 605.043 364.301 604.767 365.005C604.742 365.069 604.715 365.133 604.69 365.197C603.731 370.545 603.091 375.971 602.185 381.307C600.395 391.829 596.737 402.898 599.977 413.478C600.107 413.906 600.187 414.318 600.229 414.715C602.322 414.367 602.805 413.246 604.091 409.594C609.102 395.366 614.194 381.159 618.805 366.802C622.97 353.831 626.125 340.589 627.235 326.935C627.737 320.775 627.013 314.807 624.721 309.078Z" fill="white"/>
<path d="M738.722 343.29C729.897 355.944 721.298 368.776 711.961 381.044C708.137 386.068 703.061 390.395 697.861 394.052C690.244 399.411 685.265 397.322 682.9 388.223C681.852 384.191 681.832 379.891 681.524 377.24C682.513 355.116 689.984 337.383 704.636 322.964C708.082 319.574 712.532 316.939 716.945 314.86C722.553 312.22 727.306 313.703 731.152 318.567C736.054 324.771 738.352 332.147 739.824 339.776C740.03 340.848 739.402 342.314 738.722 343.29ZM826.468 333.487C823.61 331.412 820.573 329.047 817.372 326.931C814.732 325.187 813.686 325.487 811.881 327.958C811.338 328.699 810.946 329.55 810.401 330.287C798.7 346.132 787.201 362.134 775.165 377.722C770.704 383.5 765.073 388.404 759.777 393.5C758.006 395.203 755.638 397.535 753.028 395.976C750.413 394.415 750.629 391.155 751.041 388.42C751.781 383.516 752.573 378.602 753.718 373.78C758.574 353.34 765.529 333.543 772.333 313.702C772.962 311.868 773.473 309.995 774.298 307.286C767.757 307.286 762.09 307.144 756.445 307.415C755.408 307.464 754.097 309.008 753.526 310.166C752.222 312.81 751.298 315.64 750.43 317.859C747.181 312.474 744.334 306.886 740.657 301.908C737.105 297.099 731.788 294.942 725.708 294.843C719.678 294.744 714.032 296.24 708.665 298.828C692.63 306.56 681.302 319.074 672.74 334.375C670.944 337.586 669.318 340.931 667.18 343.9C656.501 358.726 644.837 372.738 631.524 385.282C627.25 389.307 622.642 393.051 617.829 396.41C613.569 399.382 611.109 397.996 611.488 392.818C611.916 386.975 612.81 381.111 614.118 375.398C616.496 365.015 619.376 354.787 622.542 344.644C621.726 343.959 621.121 343.02 620.922 341.79C620.581 339.684 620.541 337.931 620.713 335.811C620.846 334.164 621.52 332.879 622.482 331.955C622.78 330.839 623.094 329.728 623.425 328.624C623.008 328.299 622.638 327.92 622.322 327.492C621.352 327.244 620.446 326.776 619.709 326.104C618.838 326.654 617.868 326.971 616.888 327.056C614.34 329.527 609.896 329.262 607.908 326.524C603.273 344.444 597.833 361.043 592.966 378.975C590.308 388.702 587.905 396.894 591.09 406.848C594.354 415.792 602.43 420.222 611.733 418.226C618.202 416.838 623.653 413.439 628.884 409.642C639.229 402.132 648.086 393.026 656.581 383.543C658.018 381.938 659.461 380.338 661.44 378.138C661.602 381.143 661.644 383.29 661.848 385.419C662.584 393.063 664.756 400.21 669.409 406.446C675.764 414.963 686.176 418.184 695.932 413.975C700.42 412.039 704.677 409.214 708.473 406.102C716.638 399.407 723.097 391.078 729.429 382.682C730.526 381.227 731.705 379.832 732.846 378.41C733.385 380.016 733.138 381.072 732.949 382.139C731.589 389.811 730.833 397.442 733.604 405.024C736.722 413.564 743.516 417.31 752.361 415.198C757.82 413.895 762.876 411.606 767.162 408.046C772.393 403.702 777.664 399.306 782.278 394.338C799.136 376.192 813.045 355.806 826.448 335.063C826.608 334.814 826.468 334.371 826.468 333.487Z" fill="white"/>
<path d="M466.224 500.684C463.059 506.016 458.968 510.853 454.901 515.57C453.177 517.569 450.584 519.077 448.095 520.101C443.773 521.878 440.564 520.214 438.888 515.8C436.604 509.785 437.816 503.818 439.401 497.913C442.149 487.674 448.147 479.324 455.149 471.649C466.009 459.746 478.743 450.04 492.152 441.033C484.995 461.653 477.343 481.953 466.224 500.684ZM556.536 371.798C554.729 373.632 552.905 375.45 551.052 377.244C544.087 383.982 536.667 390.253 529.452 396.734C537.564 369.077 546.699 342.058 554.939 313.944C548.137 313.944 542.277 313.812 536.432 314.068C535.395 314.113 534.02 315.586 533.511 316.72C528.8 327.2 524.927 337.977 520.209 348.385C518.353 356.904 516.379 365.773 513.743 374.412C512.485 381.696 511.009 388.922 508.204 395.805C508.391 395.697 508.573 395.586 508.775 395.494C507.453 400.201 505.643 404.597 504.116 409.088C502.868 412.76 500.596 415.233 497.311 417.326C481.155 427.62 465.137 438.128 450.709 450.837C440.847 459.525 431.804 468.93 425.136 480.362C417.455 493.529 414.823 507.473 419.563 522.261C422.883 532.62 430.972 538.796 441.551 539.596C447.988 540.084 453.975 538.652 459.577 535.488C466.269 531.708 471.616 526.428 476.311 520.436C484.548 509.92 491.04 498.317 495.923 485.976C503.772 466.137 510.991 446.046 518.363 426.022C519.421 423.149 520.751 420.853 523.476 419.202C527.724 416.628 531.772 413.722 535.863 410.897C546.044 403.864 555.787 396.282 564.807 387.844C568.021 381.5 563.877 372.796 556.536 371.798Z" fill="white"/>
<path d="M536.097 1.21868C397.973 1.21868 286.001 113.191 286.001 251.313H313.121C313.121 128.168 412.95 28.3374 536.097 28.3374C659.243 28.3374 759.073 128.168 759.073 251.313H786.193C786.193 113.191 674.221 1.21868 536.097 1.21868Z" fill="#EFB6E9"/>
<path d="M536.097 1.21868C397.973 1.21868 286.001 113.191 286.001 251.313H313.121C313.121 128.168 412.95 28.3374 536.097 28.3374C659.243 28.3374 759.073 128.168 759.073 251.313H786.193C786.193 113.191 674.221 1.21868 536.097 1.21868Z" stroke="white" stroke-width="1.53467" stroke-miterlimit="10"/>
<path d="M536.097 28.3375C412.95 28.3375 313.121 128.168 313.121 251.313H340.239C340.239 143.145 427.927 55.4562 536.097 55.4562C644.266 55.4562 731.954 143.145 731.954 251.313H759.073C759.073 128.168 659.243 28.3375 536.097 28.3375Z" fill="#376CD3"/>
<path d="M536.097 28.3375C412.95 28.3375 313.121 128.168 313.121 251.313H340.239C340.239 143.145 427.927 55.4562 536.097 55.4562C644.266 55.4562 731.954 143.145 731.954 251.313H759.073C759.073 128.168 659.243 28.3375 536.097 28.3375Z" stroke="white" stroke-width="1.53467" stroke-miterlimit="10"/>
<path d="M536.097 55.4563C427.927 55.4563 340.239 143.144 340.239 251.314H370.655C370.655 159.943 444.726 85.8723 536.097 85.8723C627.467 85.8723 701.538 159.943 701.538 251.314H731.954C731.954 143.144 644.266 55.4563 536.097 55.4563Z" fill="#BBDDF2"/>
<path d="M536.097 55.4563C427.927 55.4563 340.239 143.144 340.239 251.314H370.655C370.655 159.943 444.726 85.8723 536.097 85.8723C627.467 85.8723 701.538 159.943 701.538 251.314H731.954C731.954 143.144 644.266 55.4563 536.097 55.4563Z" stroke="white" stroke-width="1.53467" stroke-miterlimit="10"/>
<path d="M536.097 85.8722C444.726 85.8722 370.655 159.943 370.655 251.313H397.746C397.746 174.905 459.687 112.963 536.097 112.963C612.506 112.963 674.447 174.905 674.447 251.313H701.538C701.538 159.943 627.467 85.8722 536.097 85.8722Z" fill="#8ABF80"/>
<path d="M536.097 85.8722C444.726 85.8722 370.655 159.943 370.655 251.313H397.746C397.746 174.905 459.687 112.963 536.097 112.963C612.506 112.963 674.447 174.905 674.447 251.313H701.538C701.538 159.943 627.467 85.8722 536.097 85.8722Z" stroke="white" stroke-width="1.53467" stroke-miterlimit="10"/>
<path d="M536.097 112.963C459.687 112.963 397.746 174.905 397.746 251.314H427.529C427.529 191.354 476.137 142.746 536.097 142.746C596.057 142.746 644.665 191.354 644.665 251.314H674.447C674.447 174.905 612.506 112.963 536.097 112.963Z" fill="#EFC889"/>
<path d="M536.097 112.963C459.687 112.963 397.746 174.905 397.746 251.314H427.529C427.529 191.354 476.137 142.746 536.097 142.746C596.057 142.746 644.665 191.354 644.665 251.314H674.447C674.447 174.905 612.506 112.963 536.097 112.963Z" stroke="white" stroke-width="1.53467" stroke-miterlimit="10"/>
<path d="M536.097 142.747C476.137 142.747 427.529 191.353 427.529 251.315H456.163C456.163 207.168 491.951 171.381 536.097 171.381C580.242 171.381 616.03 207.168 616.03 251.315H644.665C644.665 191.353 596.057 142.747 536.097 142.747Z" fill="#F29A68"/>
<path d="M536.097 142.747C476.137 142.747 427.529 191.353 427.529 251.315H456.163C456.163 207.168 491.951 171.381 536.097 171.381C580.242 171.381 616.03 207.168 616.03 251.315H644.665C644.665 191.353 596.057 142.747 536.097 142.747Z" stroke="white" stroke-width="1.53467" stroke-miterlimit="10"/>
<path d="M536.097 171.381C491.951 171.381 456.163 207.168 456.163 251.315H484.613C485.426 224.056 507.762 202.205 535.217 202.205C562.671 202.205 585.007 224.056 585.821 251.315H616.03C616.03 207.168 580.242 171.381 536.097 171.381Z" fill="#E04E36"/>
<path d="M536.097 171.381C491.951 171.381 456.163 207.168 456.163 251.315H484.613C485.426 224.056 507.762 202.205 535.217 202.205C562.671 202.205 585.007 224.056 585.821 251.315H616.03C616.03 207.168 580.242 171.381 536.097 171.381Z" stroke="white" stroke-width="1.53467" stroke-miterlimit="10"/>
</svg>
