<?xml version="1.0" encoding="UTF-8" standalone="no"?>
<svg
   xmlns:dc="http://purl.org/dc/elements/1.1/"
   xmlns:cc="http://creativecommons.org/ns#"
   xmlns:rdf="http://www.w3.org/1999/02/22-rdf-syntax-ns#"
   xmlns:svg="http://www.w3.org/2000/svg"
   xmlns="http://www.w3.org/2000/svg"
   viewBox="0 0 1440 1440"
   height="1440"
   width="1440"
   xml:space="preserve"
   id="svg2"
   version="1.1"><metadata
     id="metadata8"><rdf:RDF><cc:Work
         rdf:about=""><dc:format>image/svg+xml</dc:format><dc:type
           rdf:resource="http://purl.org/dc/dcmitype/StillImage" /></cc:Work></rdf:RDF></metadata><defs
     id="defs6"><clipPath
       id="clipPath18"
       clipPathUnits="userSpaceOnUse"><path
         id="path16"
         d="M 0,1080 H 1080 V 0 H 0 Z" /></clipPath></defs><g
     transform="matrix(1.3333333,0,0,-1.3333333,0,1440)"
     id="g10"><g
       id="g12"><g
         clip-path="url(#clipPath18)"
         id="g14"><g
           transform="translate(426.6555,501.2531)"
           id="g20"><path
             id="path22"
             style="fill:#000000;fill-opacity:1;fill-rule:nonzero;stroke:none"
             d="m 0,0 c -6.565,-11.069 -13.858,-21.63 -23.086,-30.686 -2.443,-2.397 -5.189,-4.59 -8.102,-6.38 -4.88,-3.001 -7.838,-1.732 -9.768,3.744 -0.32,0.908 -0.639,1.84 -0.77,2.787 -0.283,2.049 -0.444,4.115 -0.659,6.212 0.661,16.521 6.295,30.947 18.621,42.333 2.175,2.011 4.92,3.588 7.661,4.762 4.472,1.915 8.066,0.821 11.029,-2.922 C -1.561,15.411 0.367,10.255 0.99,4.681 1.16,3.163 0.779,1.313 0,0 m -39.853,-111.291 c -1.767,-2.942 -3.737,-5.831 -6.035,-8.362 -1.905,-2.099 -4.234,-4.003 -6.728,-5.331 -3.43,-1.826 -6.181,-0.469 -7.471,3.22 -1.629,4.659 -0.703,9.28 0.627,13.801 2.065,7.021 6.095,12.925 10.945,18.293 8.37,9.264 18.149,16.871 28.537,23.794 -5.654,-15.649 -11.324,-31.175 -19.875,-45.415 M -100.955,1.655 c -7.363,-11.318 -14.359,-22.929 -23.963,-32.575 -2.495,-2.505 -5.362,-4.802 -8.431,-6.536 -4.526,-2.556 -7.314,-1.446 -8.956,3.49 -1.111,3.34 -1.423,6.944 -2.093,10.431 0.94,14.883 6.187,27.749 16.055,38.719 2.782,3.093 6.036,5.658 9.895,7.338 5.021,2.185 8.689,1.341 12.061,-2.986 3.474,-4.458 5.003,-9.77 6.098,-15.199 0.166,-0.825 -0.184,-1.941 -0.666,-2.682 M 56.723,-52.22 c 1.488,0.704 2.939,1.558 4.248,2.551 2.087,1.582 4.127,3.248 6.035,5.04 6.372,5.984 11.677,12.877 16.798,19.925 1.653,2.274 3.458,4.437 5.197,6.648 -0.358,-1.409 -0.635,-2.846 -1.112,-4.214 -0.008,-0.023 -0.017,-0.047 -0.025,-0.071 5.933,8.26 13.056,15.862 20.843,22.182 3.147,9.176 6.294,18.351 9.417,27.535 0.561,1.648 1.012,3.334 1.701,5.625 -3.472,0 -6.487,-0.194 -9.466,0.054 -3.028,0.253 -4.687,-0.941 -6.178,-3.556 -9.652,-16.927 -20.14,-33.337 -31.613,-49.087 -3.973,-5.454 -8.499,-10.511 -12.874,-15.663 -0.958,-1.127 -2.287,-1.989 -3.566,-2.779 -1.25,-0.773 -2.179,-0.1 -2.455,1.186 -0.228,1.064 -0.324,2.224 -0.164,3.294 0.672,4.494 1.185,9.037 2.256,13.44 4.116,16.916 9.726,33.37 15.781,49.678 0.353,0.952 0.537,1.967 0.926,3.431 -4.445,0 -8.429,-0.103 -12.404,0.041 -2.174,0.078 -3.21,-0.827 -3.922,-2.787 C 54.261,25.067 52.317,19.896 50.185,14.807 49.023,12.035 47.74,9.219 45.983,6.808 36.828,-5.751 26.074,-16.85 14.34,-27.008 c -2.066,-1.789 -4.335,-3.344 -6.51,-5.007 -0.04,-0.11 -0.056,-0.238 -0.127,-0.321 -0.044,-0.05 -0.17,-0.03 -0.259,-0.041 0.116,0.133 0.232,0.266 0.349,0.399 0.388,1.599 0.677,3.23 1.179,4.793 5.524,17.205 11.086,34.398 16.618,51.601 0.479,1.488 0.825,3.018 1.362,5.006 -4.935,0 -9.195,-0.017 -13.454,0.009 -1.472,0.009 -2.252,-0.651 -2.626,-2.078 -0.507,-1.938 -1.175,-3.834 -1.96,-6.343 -0.535,1.145 -0.747,1.776 -1.096,2.318 -2.08,3.229 -3.901,6.684 -6.367,9.589 -2.986,3.517 -7.09,5.05 -11.826,4.921 -4.244,-0.115 -8.161,-1.294 -11.933,-3.072 C -32.628,29.902 -40.127,21.955 -46.544,12.75 -53.649,2.56 -60.731,-7.657 -68.215,-17.566 c -4.313,-5.711 -9.302,-10.929 -14.198,-16.173 -1.656,-1.773 -3.862,-3.114 -6.001,-4.327 -1.536,-0.871 -2.69,-0.169 -3.059,1.545 -0.229,1.066 -0.351,2.223 -0.196,3.292 0.631,4.357 0.934,8.832 2.18,13.018 4.485,15.066 9.305,30.033 13.994,45.039 0.321,1.027 0.606,2.065 1.069,3.651 -4.746,0 -9.126,0.104 -13.492,-0.1 -0.754,-0.035 -1.694,-1.259 -2.118,-2.141 -0.871,-1.817 -1.452,-3.774 -2.446,-6.47 -0.746,1.749 -1.091,2.737 -1.572,3.651 -1.285,2.439 -2.444,4.971 -3.985,7.24 -3.338,4.914 -8.005,7.651 -14.06,7.075 -3.119,-0.296 -6.316,-0.893 -9.233,-2 -8.59,-3.26 -15.502,-8.919 -21.288,-15.979 -11.491,-14.024 -17.318,-29.991 -16.286,-48.235 0.292,-5.145 1.468,-10.119 4.012,-14.654 4.801,-8.56 14.412,-12.664 24.039,-7.381 2.286,1.255 4.475,2.746 6.52,4.365 6.456,5.108 11.297,11.697 16.308,18.121 0.816,1.047 1.642,2.087 2.464,3.13 0.346,-1.317 0.216,-2.391 0.041,-3.458 -0.717,-4.375 -1.013,-8.749 -0.324,-13.166 1.377,-8.833 7.519,-13.046 16.047,-10.527 3.247,0.959 6.418,2.574 9.252,4.451 6.971,4.618 12.457,10.879 17.879,17.161 1.512,1.752 2.962,3.557 4.774,5.74 0.1,-1.374 0.135,-2.174 0.218,-2.97 0.644,-6.087 1.802,-12.008 5.37,-17.192 5.065,-7.357 12.768,-9.783 21.014,-6.47 1.779,0.715 3.502,1.643 5.115,2.684 6.092,3.932 11.12,9.044 15.815,14.514 0.787,0.917 1.684,1.742 2.53,2.609 -0.831,-4.027 -2.299,-7.583 -3.586,-11.202 -0.782,-2.201 -2.129,-3.72 -4.102,-4.955 -4.682,-2.928 -9.29,-5.979 -13.866,-9.07 -11.355,-7.669 -22.216,-15.945 -31.54,-26.075 -4.607,-5.006 -8.598,-10.442 -11.509,-16.624 -3.845,-8.163 -4.836,-16.681 -2.686,-25.428 1.992,-8.106 7.012,-13.382 15.45,-14.782 5.499,-0.913 10.726,0.211 15.526,3.067 4.073,2.423 7.575,5.524 10.603,9.172 6.222,7.497 11.306,15.759 14.906,24.749 6.357,15.874 12.25,31.935 18.2,47.968 0.813,2.19 1.866,3.804 3.825,5.102 5.178,3.431 10.397,6.837 15.291,10.649 6.954,5.417 13.63,11.188 20.44,16.82 -0.383,-2.79 -0.777,-5.771 -1.206,-8.746 -0.683,-4.74 -0.179,-9.39 1.318,-13.891 2.689,-8.083 9.805,-11.084 17.491,-7.451" /></g><g
           transform="translate(187.2932,560.3276)"
           id="g24"><path
             id="path26"
             style="fill:#000000;fill-opacity:1;fill-rule:nonzero;stroke:none"
             d="m 0,0 c -0.471,-0.663 -1.003,-1.292 -1.404,-1.995 -10.971,-19.206 -20.652,-39.044 -28.86,-59.583 -6.253,-15.647 -11.884,-31.499 -14.741,-48.192 -0.668,-3.897 -0.941,-7.792 -0.305,-12.381 2.997,1.821 4.802,3.903 6.166,6.235 3.691,6.309 7.527,12.569 10.702,19.139 11.156,23.09 19.253,47.262 24.448,72.366 1.673,8.081 2.646,16.306 3.94,24.465 C 0.012,0.125 0.079,0.195 0.145,0.266 0.097,0.177 0.048,0.089 0,0 m 21.428,-67.967 c -0.305,5.086 -0.544,9.604 -0.862,14.115 -0.149,2.103 1.219,2.4 2.801,2.801 7.777,1.971 15.342,4.571 22.539,8.142 26.504,13.152 45.447,33.267 55.908,61.084 5.144,13.677 6.023,27.672 2.426,41.871 -0.572,2.257 -1.467,4.456 -2.412,6.593 -5.311,12.01 -15.837,16.535 -28.64,13.18 C 64.548,77.555 57.464,72.547 50.764,66.919 39.147,57.159 29.769,45.401 20.859,33.231 20.452,32.674 20.084,32.085 19.648,31.552 16.526,27.736 14.97,23.618 14.66,18.449 13.554,-0.015 10.698,-18.272 6.795,-36.367 c -4.342,-20.131 -9.899,-39.89 -17.697,-58.97 -4.08,-9.984 -8.715,-19.72 -15.246,-28.375 -2.396,-3.175 -5.142,-6.165 -8.122,-8.793 -2.12,-1.869 -4.761,-3.355 -7.414,-4.373 -6.381,-2.448 -12.763,0 -15.67,6.187 -1.37,2.916 -2.126,6.282 -2.416,9.511 -0.648,7.198 0.514,14.315 1.962,21.359 4.385,21.328 11.915,41.611 20.653,61.472 10.586,24.059 23.015,47.122 37.815,68.872 1.144,1.681 1.674,3.342 1.547,5.398 -1.104,17.946 -3.886,35.628 -8.171,53.081 -0.592,2.41 -1.235,4.808 -1.829,7.217 -0.06,0.245 0.055,0.533 0.153,1.322 4.417,1.177 9.022,2.451 13.654,3.615 1.703,0.427 2.111,-0.919 2.355,-2.184 0.859,-4.468 1.913,-8.914 2.466,-13.421 1.308,-10.672 2.364,-21.375 3.547,-32.062 0.087,-0.782 0.374,-1.541 0.557,-2.269 6.323,6.798 12.321,13.655 18.764,20.065 7.558,7.521 15.925,14.076 25.497,18.959 6.862,3.502 14.109,5.829 21.816,5.752 13.227,-0.132 23.688,-5.713 30.849,-17.012 4.499,-7.1 7.097,-14.932 8.45,-23.177 3.024,-18.428 0.024,-35.992 -7.96,-52.748 -11.1,-23.293 -28.567,-40.735 -50.274,-54.205 -11.091,-6.881 -22.91,-12.133 -35.514,-15.575 -1.452,-0.397 -2.927,-0.713 -5.139,-1.246" /></g><g
           transform="translate(595.2906,530.1914)"
           id="g28"><path
             id="path30"
             style="fill:#000000;fill-opacity:1;fill-rule:nonzero;stroke:none"
             d="m 0,0 c -1.731,4.326 -4.945,6.924 -9.575,7.59 -3.156,0.454 -5.986,-0.653 -8.649,-2.224 -5.689,-3.356 -10.927,-9.916 -15.435,-14.583 -4.266,-4.417 -12.017,-10.676 -10.451,-13.967 2.411,-5.063 4.686,-9.196 7.755,-6.451 4.703,4.206 12.137,12.749 16.702,18.559 2.943,3.745 6.327,3.119 6.034,-1.822 -0.253,-4.243 -1.395,-8.183 -2.235,-12.299 2.479,-0.822 5.234,-2.576 3.929,-5.693 -1.29,-3.081 -2.135,-6.282 -2.783,-9.534 0.024,-0.484 -0.05,-0.993 -0.257,-1.521 -0.019,-0.048 -0.039,-0.096 -0.058,-0.144 -0.719,-4.011 -1.199,-8.081 -1.879,-12.083 -1.342,-7.891 -4.086,-16.193 -1.656,-24.128 0.098,-0.321 0.158,-0.63 0.189,-0.928 1.57,0.261 1.932,1.102 2.897,3.841 3.758,10.671 7.577,21.326 11.035,32.094 3.124,9.728 5.49,19.66 6.323,29.9 C 2.262,-8.773 1.719,-4.297 0,0" /></g><g
           transform="translate(680.7917,504.5328)"
           id="g32"><path
             id="path34"
             style="fill:#000000;fill-opacity:1;fill-rule:nonzero;stroke:none"
             d="m 0,0 c -6.619,-9.491 -13.068,-19.115 -20.071,-28.316 -2.868,-3.768 -6.675,-7.013 -10.575,-9.756 -5.713,-4.019 -9.447,-2.452 -11.221,4.372 -0.786,3.024 -0.801,6.249 -1.032,8.237 0.742,16.593 6.345,29.893 17.334,40.707 2.585,2.543 5.922,4.519 9.232,6.078 4.206,1.98 7.771,0.868 10.655,-2.78 C -2.001,13.889 -0.278,8.357 0.826,2.635 0.981,1.831 0.51,0.732 0,0 m 65.809,7.352 c -2.143,1.556 -4.421,3.33 -6.822,4.917 -1.98,1.308 -2.764,1.083 -4.118,-0.77 -0.407,-0.556 -0.701,-1.194 -1.11,-1.747 -8.776,-11.884 -17.4,-23.885 -26.427,-35.576 -3.346,-4.334 -7.569,-8.012 -11.541,-11.834 -1.328,-1.277 -3.104,-3.026 -5.062,-1.857 -1.961,1.171 -1.799,3.616 -1.49,5.667 0.555,3.678 1.149,7.364 2.008,10.98 3.642,15.33 8.858,30.178 13.961,45.059 0.472,1.375 0.855,2.78 1.474,4.812 -4.906,0 -9.156,0.106 -13.39,-0.097 -0.778,-0.037 -1.761,-1.195 -2.189,-2.063 -0.978,-1.983 -1.671,-4.106 -2.322,-5.77 -2.437,4.039 -4.572,8.23 -7.33,11.963 -2.664,3.607 -6.652,5.225 -11.212,5.299 -4.522,0.074 -8.757,-1.048 -12.782,-2.989 -12.026,-5.799 -20.522,-15.184 -26.944,-26.66 -1.347,-2.408 -2.566,-4.917 -4.17,-7.144 -8.009,-11.119 -16.757,-21.628 -26.742,-31.036 -3.205,-3.019 -6.661,-5.827 -10.271,-8.346 -3.195,-2.229 -5.04,-1.19 -4.756,2.694 0.321,4.382 0.992,8.78 1.973,13.065 1.783,7.787 3.943,15.458 6.318,23.065 -0.612,0.514 -1.066,1.218 -1.215,2.141 -0.256,1.579 -0.286,2.894 -0.157,4.484 0.1,1.235 0.605,2.199 1.327,2.892 0.223,0.837 0.459,1.67 0.707,2.498 -0.313,0.244 -0.59,0.528 -0.827,0.849 -0.728,0.186 -1.407,0.537 -1.96,1.041 -0.653,-0.412 -1.381,-0.65 -2.116,-0.714 -1.911,-1.853 -5.244,-1.654 -6.735,0.399 -3.476,-13.44 -7.556,-25.889 -11.206,-39.338 -1.994,-7.295 -3.796,-13.439 -1.407,-20.905 2.448,-6.708 8.505,-10.03 15.482,-8.533 4.852,1.041 8.94,3.59 12.863,6.438 7.759,5.632 14.402,12.462 20.773,19.574 1.078,1.204 2.16,2.404 3.644,4.054 0.122,-2.254 0.153,-3.864 0.306,-5.461 0.552,-5.733 2.181,-11.093 5.671,-15.77 4.766,-6.388 12.575,-8.804 19.892,-5.647 3.366,1.452 6.559,3.571 9.406,5.905 6.124,5.021 10.968,11.268 15.717,17.565 0.823,1.091 1.707,2.137 2.563,3.204 0.404,-1.205 0.219,-1.997 0.077,-2.797 -1.02,-5.754 -1.587,-11.477 0.491,-17.164 2.339,-6.405 7.434,-9.214 14.068,-7.63 4.094,0.977 7.886,2.694 11.101,5.364 3.923,3.258 7.876,6.555 11.337,10.281 12.643,13.609 23.075,28.899 33.127,44.456 0.12,0.187 0.015,0.519 0.015,1.182" /></g><g
           transform="translate(476.418,386.4873)"
           id="g36"><path
             id="path38"
             style="fill:#000000;fill-opacity:1;fill-rule:nonzero;stroke:none"
             d="m 0,0 c -2.374,-3.999 -5.442,-7.627 -8.492,-11.165 -1.293,-1.499 -3.238,-2.63 -5.105,-3.398 -3.241,-1.333 -5.648,-0.085 -6.905,3.226 -1.713,4.511 -0.804,8.986 0.385,13.415 2.061,7.679 6.559,13.942 11.811,19.698 8.145,8.927 17.695,16.207 27.752,22.962 C 14.078,29.273 8.339,14.048 0,0 m 67.734,96.664 c -1.355,-1.375 -2.723,-2.739 -4.113,-4.084 -5.224,-5.054 -10.789,-9.757 -16.2,-14.618 6.084,20.743 12.935,41.007 19.115,62.093 -5.101,0 -9.496,0.099 -13.88,-0.093 -0.778,-0.034 -1.809,-1.139 -2.191,-1.989 -3.533,-7.86 -6.438,-15.943 -9.976,-23.749 -1.392,-6.389 -2.873,-13.041 -4.85,-19.52 -0.943,-5.463 -2.05,-10.883 -4.154,-16.045 0.14,0.081 0.277,0.164 0.428,0.233 -0.991,-3.53 -2.349,-6.827 -3.494,-10.195 -0.936,-2.754 -2.64,-4.609 -5.104,-6.179 -12.117,-7.72 -24.13,-15.601 -34.951,-25.133 -7.397,-6.516 -14.179,-13.57 -19.18,-22.144 -5.761,-9.875 -7.735,-20.333 -4.18,-31.424 2.49,-7.769 8.557,-12.401 16.491,-13.001 4.828,-0.366 9.318,0.708 13.52,3.081 5.019,2.835 9.029,6.795 12.55,11.289 6.178,7.887 11.047,16.589 14.709,25.845 5.887,14.879 11.301,29.947 16.83,44.965 0.794,2.155 1.791,3.877 3.835,5.115 3.186,1.931 6.222,4.11 9.29,6.229 7.636,5.275 14.943,10.961 21.708,17.29 2.411,4.758 -0.697,11.286 -6.203,12.034" /></g><g
           transform="translate(528.8226,761.086)"
           id="g40"><path
             id="path42"
             style="fill:#efb6e9;fill-opacity:1;fill-rule:nonzero;stroke:none"
             d="m 0,0 c -103.593,0 -187.572,-83.979 -187.572,-187.571 h 20.34 c 0,92.359 74.872,167.232 167.232,167.232 92.36,0 167.232,-74.873 167.232,-167.232 h 20.34 C 187.572,-83.979 103.593,0 0,0" /></g><g
           transform="translate(528.8226,761.086)"
           id="g44"><path
             id="path46"
             style="fill:none;stroke:#ffffff;stroke-width:1.15100002;stroke-linecap:butt;stroke-linejoin:miter;stroke-miterlimit:10;stroke-dasharray:none;stroke-opacity:1"
             d="m 0,0 c -103.593,0 -187.572,-83.979 -187.572,-187.571 h 20.34 c 0,92.359 74.872,167.232 167.232,167.232 92.36,0 167.232,-74.873 167.232,-167.232 h 20.34 C 187.572,-83.979 103.593,0 0,0 Z" /></g><g
           transform="translate(528.8226,740.7469)"
           id="g48"><path
             id="path50"
             style="fill:#376cd3;fill-opacity:1;fill-rule:nonzero;stroke:none"
             d="m 0,0 c -92.36,0 -167.232,-74.873 -167.232,-167.232 h 20.339 c 0,81.126 65.766,146.893 146.893,146.893 81.127,0 146.893,-65.767 146.893,-146.893 h 20.339 C 167.232,-74.873 92.36,0 0,0" /></g><g
           transform="translate(528.8226,740.7469)"
           id="g52"><path
             id="path54"
             style="fill:none;stroke:#ffffff;stroke-width:1.15100002;stroke-linecap:butt;stroke-linejoin:miter;stroke-miterlimit:10;stroke-dasharray:none;stroke-opacity:1"
             d="m 0,0 c -92.36,0 -167.232,-74.873 -167.232,-167.232 h 20.339 c 0,81.126 65.766,146.893 146.893,146.893 81.127,0 146.893,-65.767 146.893,-146.893 h 20.339 C 167.232,-74.873 92.36,0 0,0 Z" /></g><g
           transform="translate(528.8226,720.4078)"
           id="g56"><path
             id="path58"
             style="fill:#bbddf2;fill-opacity:1;fill-rule:nonzero;stroke:none"
             d="m 0,0 c -81.127,0 -146.893,-65.766 -146.893,-146.893 h 22.812 c 0,68.528 55.553,124.081 124.081,124.081 68.528,0 124.081,-55.553 124.081,-124.081 h 22.812 C 146.893,-65.766 81.127,0 0,0" /></g><g
           transform="translate(528.8226,720.4078)"
           id="g60"><path
             id="path62"
             style="fill:none;stroke:#ffffff;stroke-width:1.15100002;stroke-linecap:butt;stroke-linejoin:miter;stroke-miterlimit:10;stroke-dasharray:none;stroke-opacity:1"
             d="m 0,0 c -81.127,0 -146.893,-65.766 -146.893,-146.893 h 22.812 c 0,68.528 55.553,124.081 124.081,124.081 68.528,0 124.081,-55.553 124.081,-124.081 h 22.812 C 146.893,-65.766 81.127,0 0,0 Z" /></g><g
           transform="translate(528.8226,697.5959)"
           id="g64"><path
             id="path66"
             style="fill:#8abf80;fill-opacity:1;fill-rule:nonzero;stroke:none"
             d="m 0,0 c -68.528,0 -124.081,-55.553 -124.081,-124.081 h 20.318 c 0,57.306 46.456,103.763 103.763,103.763 57.307,0 103.763,-46.457 103.763,-103.763 h 20.318 C 124.081,-55.553 68.528,0 0,0" /></g><g
           transform="translate(528.8226,697.5959)"
           id="g68"><path
             id="path70"
             style="fill:none;stroke:#ffffff;stroke-width:1.15100002;stroke-linecap:butt;stroke-linejoin:miter;stroke-miterlimit:10;stroke-dasharray:none;stroke-opacity:1"
             d="m 0,0 c -68.528,0 -124.081,-55.553 -124.081,-124.081 h 20.318 c 0,57.306 46.456,103.763 103.763,103.763 57.307,0 103.763,-46.457 103.763,-103.763 h 20.318 C 124.081,-55.553 68.528,0 0,0 Z" /></g><g
           transform="translate(528.8226,677.2776)"
           id="g72"><path
             id="path74"
             style="fill:#efc889;fill-opacity:1;fill-rule:nonzero;stroke:none"
             d="m 0,0 c -57.307,0 -103.763,-46.456 -103.763,-103.763 h 22.337 c 0,44.97 36.456,81.426 81.426,81.426 44.97,0 81.426,-36.456 81.426,-81.426 h 22.337 C 103.763,-46.456 57.307,0 0,0" /></g><g
           transform="translate(528.8226,677.2776)"
           id="g76"><path
             id="path78"
             style="fill:none;stroke:#ffffff;stroke-width:1.15100002;stroke-linecap:butt;stroke-linejoin:miter;stroke-miterlimit:10;stroke-dasharray:none;stroke-opacity:1"
             d="m 0,0 c -57.307,0 -103.763,-46.456 -103.763,-103.763 h 22.337 c 0,44.97 36.456,81.426 81.426,81.426 44.97,0 81.426,-36.456 81.426,-81.426 h 22.337 C 103.763,-46.456 57.307,0 0,0 Z" /></g><g
           transform="translate(528.8226,654.9401)"
           id="g80"><path
             id="path82"
             style="fill:#f29a68;fill-opacity:1;fill-rule:nonzero;stroke:none"
             d="m 0,0 c -44.97,0 -81.426,-36.455 -81.426,-81.426 h 21.476 c 0,33.11 26.841,59.95 59.95,59.95 33.109,0 59.95,-26.84 59.95,-59.95 H 81.426 C 81.426,-36.455 44.97,0 0,0" /></g><g
           transform="translate(528.8226,654.9401)"
           id="g84"><path
             id="path86"
             style="fill:none;stroke:#ffffff;stroke-width:1.15100002;stroke-linecap:butt;stroke-linejoin:miter;stroke-miterlimit:10;stroke-dasharray:none;stroke-opacity:1"
             d="m 0,0 c -44.97,0 -81.426,-36.455 -81.426,-81.426 h 21.476 c 0,33.11 26.841,59.95 59.95,59.95 33.109,0 59.95,-26.84 59.95,-59.95 H 81.426 C 81.426,-36.455 44.97,0 0,0 Z" /></g><g
           transform="translate(528.8226,633.4641)"
           id="g88"><path
             id="path90"
             style="fill:#e04e36;fill-opacity:1;fill-rule:nonzero;stroke:none"
             d="m 0,0 c -33.109,0 -59.95,-26.84 -59.95,-59.95 h 21.337 c 0.61,20.444 17.362,36.832 37.953,36.832 20.591,0 37.343,-16.388 37.953,-36.832 H 59.95 C 59.95,-26.84 33.109,0 0,0" /></g><g
           transform="translate(528.8226,633.4641)"
           id="g92"><path
             id="path94"
             style="fill:none;stroke:#ffffff;stroke-width:1.15100002;stroke-linecap:butt;stroke-linejoin:miter;stroke-miterlimit:10;stroke-dasharray:none;stroke-opacity:1"
             d="m 0,0 c -33.109,0 -59.95,-26.84 -59.95,-59.95 h 21.337 c 0.61,20.444 17.362,36.832 37.953,36.832 20.591,0 37.343,-16.388 37.953,-36.832 H 59.95 C 59.95,-26.84 33.109,0 0,0 Z" /></g><g
           transform="translate(567.029,395.8358)"
           id="g96"><path
             id="path98"
             style="fill:#000000;fill-opacity:1;fill-rule:nonzero;stroke:none"
             d="m 0,0 1.101,-5.455 -2.353,-0.475 -0.662,3.284 -12.282,-2.478 -2.765,13.703 2.482,0.5 2.327,-11.53 7.499,1.513 -2.327,11.531 2.481,0.501 2.327,-11.531 z" /></g><g
           transform="translate(571.4401,405.3378)"
           id="g100"><path
             id="path102"
             style="fill:#000000;fill-opacity:1;fill-rule:nonzero;stroke:none"
             d="m 0,0 c -0.687,-0.861 -1.004,-1.893 -0.949,-3.096 l 8.848,1.45 C 7.571,-0.507 6.942,0.366 6.015,0.972 5.087,1.576 4.024,1.781 2.827,1.586 1.63,1.39 0.687,0.861 0,0 M 10.536,-3.059 -0.655,-4.892 c 0.354,-1.189 1.048,-2.078 2.08,-2.666 1.031,-0.588 2.224,-0.771 3.578,-0.549 1.648,0.269 2.885,1.042 3.709,2.317 l 1.644,-1.388 C 9.851,-8.009 9.165,-8.691 8.298,-9.226 7.433,-9.759 6.427,-10.119 5.282,-10.307 c -1.457,-0.239 -2.799,-0.151 -4.025,0.263 -1.227,0.414 -2.236,1.108 -3.028,2.084 -0.792,0.975 -1.298,2.139 -1.52,3.492 -0.219,1.336 -0.116,2.591 0.306,3.766 0.422,1.174 1.109,2.145 2.061,2.916 0.952,0.77 2.087,1.264 3.405,1.479 1.319,0.217 2.545,0.11 3.674,-0.32 1.131,-0.43 2.074,-1.135 2.832,-2.115 0.758,-0.982 1.25,-2.165 1.479,-3.554 0.031,-0.191 0.055,-0.445 0.07,-0.763" /></g><g
           transform="translate(585.0026,410.6269)"
           id="g104"><path
             id="path106"
             style="fill:#000000;fill-opacity:1;fill-rule:nonzero;stroke:none"
             d="m 0,0 2.512,0.317 0.743,-5.887 7.902,0.997 -0.743,5.887 2.513,0.318 1.75,-13.869 -2.512,-0.318 -0.733,5.81 -7.903,-0.997 0.733,-5.81 -2.512,-0.316 z" /></g><g
           transform="translate(613.7282,411.5439)"
           id="g108"><path
             id="path110"
             style="fill:#000000;fill-opacity:1;fill-rule:nonzero;stroke:none"
             d="m 0,0 -5.095,-0.472 1.084,-11.713 -2.521,-0.233 -1.084,11.713 -5.095,-0.471 -0.205,2.206 12.712,1.176 z" /></g><g
           transform="translate(626.6882,403.2528)"
           id="g112"><path
             id="path114"
             style="fill:#000000;fill-opacity:1;fill-rule:nonzero;stroke:none"
             d="M 0,0 C 0.687,0.453 1.214,1.065 1.583,1.836 1.952,2.606 2.108,3.474 2.053,4.439 1.996,5.404 1.739,6.248 1.283,6.971 0.827,7.692 0.232,8.234 -0.502,8.597 -1.236,8.959 -2.052,9.114 -2.947,9.062 -3.825,9.011 -4.606,8.758 -5.294,8.304 -5.98,7.85 -6.509,7.242 -6.878,6.48 -7.248,5.72 -7.404,4.855 -7.348,3.891 -7.291,2.925 -7.04,2.081 -6.593,1.358 -6.146,0.636 -5.55,0.09 -4.806,-0.28 -4.062,-0.651 -3.251,-0.811 -2.373,-0.76 -1.479,-0.707 -0.687,-0.454 0,0 M 0.82,10.603 C 1.926,10.068 2.813,9.283 3.481,8.248 4.149,7.213 4.524,5.992 4.606,4.589 4.688,3.184 4.458,1.925 3.915,0.81 3.373,-0.306 2.583,-1.192 1.548,-1.852 0.512,-2.511 -0.683,-2.88 -2.034,-2.959 c -1,-0.059 -1.929,0.081 -2.785,0.419 -0.857,0.337 -1.596,0.857 -2.218,1.561 l 0.421,-7.214 -2.528,-0.148 -1.113,19.064 2.423,0.14 0.129,-2.211 c 0.517,0.805 1.193,1.43 2.03,1.875 0.837,0.446 1.774,0.699 2.81,0.759 1.351,0.079 2.58,-0.149 3.685,-0.683" /></g><g
           transform="translate(651.8141,403.8427)"
           id="g116"><path
             id="path118"
             style="fill:#000000;fill-opacity:1;fill-rule:nonzero;stroke:none"
             d="M 0,0 C 0.712,0.414 1.273,0.996 1.686,1.744 2.097,2.492 2.302,3.35 2.3,4.316 2.299,5.283 2.09,6.141 1.676,6.888 1.261,7.634 0.697,8.208 -0.016,8.611 -0.729,9.015 -1.533,9.216 -2.43,9.214 -3.31,9.212 -4.104,9.004 -4.815,8.59 -5.527,8.175 -6.089,7.599 -6.501,6.859 -6.913,6.12 -7.117,5.267 -7.116,4.3 -7.114,3.332 -6.91,2.476 -6.505,1.729 c 0.406,-0.747 0.97,-1.326 1.692,-1.738 0.721,-0.412 1.522,-0.617 2.401,-0.615 C -1.515,-0.622 -0.711,-0.414 0,0 M 1.418,10.54 C 2.492,9.943 3.333,9.11 3.941,8.039 4.551,6.967 4.856,5.729 4.858,4.321 4.861,2.915 4.561,1.67 3.956,0.588 3.351,-0.495 2.513,-1.336 1.441,-1.936 c -1.071,-0.6 -2.284,-0.901 -3.638,-0.903 -1.002,-0.002 -1.921,0.19 -2.757,0.575 -0.836,0.385 -1.545,0.947 -2.126,1.684 l 0.013,-7.227 -2.533,-0.005 -0.035,19.096 2.427,0.005 0.004,-2.216 c 0.561,0.775 1.272,1.361 2.134,1.758 0.86,0.398 1.809,0.597 2.847,0.599 1.354,0.003 2.568,-0.294 3.641,-0.89" /></g><g
           transform="translate(663.2761,411.828)"
           id="g120"><path
             id="path122"
             style="fill:#000000;fill-opacity:1;fill-rule:nonzero;stroke:none"
             d="M 0,0 C -0.846,-0.707 -1.361,-1.655 -1.548,-2.844 L 7.413,-3.188 C 7.317,-2.006 6.876,-1.025 6.088,-0.247 5.299,0.531 4.299,0.943 3.087,0.99 1.874,1.037 0.846,0.707 0,0 m 9.716,-5.098 -11.333,0.435 c 0.11,-1.235 0.613,-2.245 1.507,-3.026 0.893,-0.784 2.026,-1.201 3.396,-1.253 1.669,-0.064 3.035,0.447 4.098,1.532 l 1.334,-1.688 c -0.661,-0.714 -1.469,-1.246 -2.424,-1.596 -0.955,-0.351 -2.012,-0.503 -3.172,-0.459 -1.476,0.056 -2.773,0.41 -3.893,1.06 -1.118,0.65 -1.968,1.531 -2.55,2.645 -0.582,1.113 -0.847,2.355 -0.794,3.725 0.052,1.354 0.401,2.563 1.05,3.629 0.647,1.067 1.514,1.882 2.601,2.448 C 0.622,2.919 1.833,3.176 3.168,3.125 4.504,3.074 5.683,2.725 6.705,2.079 7.727,1.433 8.512,0.553 9.059,-0.559 9.605,-1.671 9.852,-2.93 9.798,-4.335 9.79,-4.528 9.763,-4.782 9.716,-5.098" /></g><g
           transform="translate(688.7565,413.4247)"
           id="g124"><path
             id="path126"
             style="fill:#000000;fill-opacity:1;fill-rule:nonzero;stroke:none"
             d="m 0,0 -1.079,-13.938 -2.525,0.196 0.436,5.628 c -1.562,-0.585 -3.088,-0.82 -4.578,-0.704 -1.735,0.134 -3.046,0.641 -3.93,1.521 -0.885,0.88 -1.263,2.126 -1.138,3.739 l 0.349,4.523 2.525,-0.195 -0.338,-4.366 c -0.075,-0.965 0.172,-1.716 0.738,-2.253 0.567,-0.538 1.394,-0.848 2.48,-0.932 1.228,-0.096 2.576,0.108 4.042,0.612 l 0.494,6.364 z" /></g><g
           transform="translate(694.0388,412.9286)"
           id="g128"><path
             id="path130"
             style="fill:#000000;fill-opacity:1;fill-rule:nonzero;stroke:none"
             d="m 0,0 2.515,-0.303 -1.217,-10.108 9.727,9.084 2.278,-0.275 -1.67,-13.878 -2.514,0.302 1.216,10.109 -9.7,-9.087 -2.305,0.277 z" /></g><g
           transform="translate(719.8376,409.411)"
           id="g132"><path
             id="path134"
             style="fill:#000000;fill-opacity:1;fill-rule:nonzero;stroke:none"
             d="m 0,0 2.488,-0.468 -1.881,-10.006 10.306,8.423 2.255,-0.424 -2.582,-13.738 -2.488,0.468 1.88,10.005 -10.28,-8.427 -2.28,0.429 z" /></g><g
           transform="translate(745.3854,404.164)"
           id="g136"><path
             id="path138"
             style="fill:#000000;fill-opacity:1;fill-rule:nonzero;stroke:none"
             d="m 0,0 2.45,-0.641 -1.501,-5.742 7.707,-2.013 1.5,5.742 2.45,-0.641 -3.534,-13.524 -2.45,0.639 1.481,5.665 -7.707,2.015 -1.48,-5.666 -2.45,0.641 z" /></g><g
           transform="translate(764.8015,395.5829)"
           id="g140"><path
             id="path142"
             style="fill:#000000;fill-opacity:1;fill-rule:nonzero;stroke:none"
             d="M 0,0 C -1.002,-0.458 -1.751,-1.235 -2.245,-2.333 L 6.307,-5.034 C 6.527,-3.869 6.36,-2.807 5.806,-1.848 5.251,-0.889 4.396,-0.227 3.238,0.139 2.082,0.505 1.002,0.458 0,0 m 8.021,-7.484 -10.814,3.416 c -0.22,-1.222 -0.002,-2.328 0.653,-3.319 0.656,-0.991 1.637,-1.692 2.945,-2.105 1.592,-0.503 3.045,-0.372 4.356,0.393 l 0.841,-1.979 c -0.826,-0.514 -1.747,-0.814 -2.76,-0.9 -1.013,-0.085 -2.073,0.047 -3.18,0.397 -1.409,0.445 -2.567,1.129 -3.473,2.052 -0.908,0.923 -1.495,1.997 -1.762,3.225 -0.266,1.227 -0.193,2.495 0.22,3.803 0.408,1.291 1.065,2.364 1.972,3.222 0.907,0.856 1.959,1.414 3.156,1.673 C 1.372,2.651 2.607,2.579 3.882,2.177 5.156,1.773 6.201,1.126 7.016,0.232 7.83,-0.661 8.354,-1.717 8.588,-2.934 8.821,-4.151 8.727,-5.43 8.303,-6.771 8.244,-6.956 8.15,-7.193 8.021,-7.484" /></g><g
           transform="translate(783.6638,395.456)"
           id="g144"><path
             id="path146"
             style="fill:#000000;fill-opacity:1;fill-rule:nonzero;stroke:none"
             d="M 0,0 C -0.455,0.838 -0.484,1.812 -0.087,2.921 L 1.519,2.318 C 1.306,1.703 1.332,1.135 1.597,0.612 1.86,0.091 2.33,-0.297 3.006,-0.55 3.681,-0.804 4.293,-0.822 4.844,-0.606 5.395,-0.391 5.792,0.019 6.037,0.622 L 7.691,0.001 C 7.261,-1.096 6.591,-1.807 5.68,-2.132 4.769,-2.457 3.713,-2.394 2.511,-1.942 1.293,-1.484 0.456,-0.838 0,0 m -4.253,-1.347 2.371,-0.89 -3.578,-9.532 11.604,6.519 2.148,-0.807 -4.913,-13.087 -2.371,0.89 3.578,9.532 -11.578,-6.528 -2.173,0.815 z" /></g><g
           transform="translate(801.2751,373.1737)"
           id="g148"><path
             id="path150"
             style="fill:#000000;fill-opacity:1;fill-rule:nonzero;stroke:none"
             d="M 0,0 C 0.815,0.108 1.558,0.429 2.226,0.961 2.894,1.493 3.413,2.205 3.784,3.099 4.154,3.991 4.292,4.862 4.197,5.712 4.102,6.56 3.803,7.308 3.3,7.954 2.797,8.601 2.132,9.096 1.304,9.439 0.491,9.776 -0.322,9.891 -1.139,9.782 -1.955,9.673 -2.695,9.357 -3.36,8.833 -4.024,8.31 -4.542,7.601 -4.913,6.708 -5.284,5.814 -5.426,4.945 -5.338,4.1 -5.251,3.255 -4.954,2.503 -4.446,1.845 -3.939,1.187 -3.279,0.689 -2.467,0.353 -1.639,0.009 -0.816,-0.108 0,0 M 5.366,9.182 C 6.127,8.219 6.583,7.125 6.732,5.901 6.881,4.679 6.687,3.417 6.147,2.118 5.607,0.818 4.851,-0.214 3.876,-0.98 2.901,-1.746 1.804,-2.2 0.584,-2.342 c -1.22,-0.14 -2.455,0.048 -3.705,0.568 -0.926,0.383 -1.701,0.915 -2.323,1.591 -0.624,0.678 -1.062,1.469 -1.315,2.373 l -2.769,-6.674 -2.339,0.97 7.318,17.638 2.241,-0.931 -0.848,-2.046 c 0.816,0.499 1.698,0.766 2.645,0.801 0.948,0.035 1.901,-0.145 2.859,-0.543 1.25,-0.519 2.256,-1.26 3.018,-2.223" /></g><g
           transform="translate(817.5632,367.0556)"
           id="g152"><path
             id="path154"
             style="fill:#000000;fill-opacity:1;fill-rule:nonzero;stroke:none"
             d="M 0,0 C 0.809,0.157 1.525,0.524 2.151,1.099 2.777,1.673 3.248,2.418 3.563,3.332 3.879,4.246 3.968,5.122 3.829,5.961 3.69,6.799 3.351,7.525 2.81,8.141 2.269,8.755 1.574,9.208 0.727,9.501 -0.121,9.794 -0.948,9.864 -1.753,9.715 -2.559,9.564 -3.278,9.204 -3.912,8.633 -4.547,8.061 -5.021,7.317 -5.337,6.403 -5.652,5.489 -5.737,4.611 -5.59,3.771 -5.443,2.929 -5.101,2.197 -4.562,1.574 -4.024,0.951 -3.331,0.493 -2.483,0.201 -1.636,-0.092 -0.808,-0.159 0,0 m -6.445,0.201 c -0.847,0.944 -1.389,2.028 -1.626,3.254 -0.238,1.226 -0.132,2.486 0.315,3.783 0.447,1.297 1.143,2.355 2.086,3.173 0.942,0.818 2.036,1.334 3.281,1.546 1.245,0.212 2.525,0.092 3.838,-0.361 C 2.762,11.143 3.839,10.449 4.68,9.518 5.521,8.586 6.061,7.507 6.298,6.281 6.534,5.055 6.43,3.794 5.982,2.497 5.535,1.201 4.84,0.144 3.896,-0.676 2.954,-1.494 1.862,-2.015 0.623,-2.238 c -1.24,-0.224 -2.517,-0.109 -3.829,0.344 -1.314,0.454 -2.393,1.152 -3.239,2.095" /></g><g
           transform="translate(832.321,366.0058)"
           id="g156"><path
             id="path158"
             style="fill:#000000;fill-opacity:1;fill-rule:nonzero;stroke:none"
             d="M 0,0 -2.803,0.749 -4.327,-4.959 -6.773,-4.306 -3.166,9.2 -0.72,8.547 -2.245,2.838 0.609,2.076 6.517,6.613 9.142,5.912 2.284,0.782 5.891,-7.688 3.012,-6.919 Z" /></g><g
           transform="translate(849.8913,358.7597)"
           id="g160"><path
             id="path162"
             style="fill:#000000;fill-opacity:1;fill-rule:nonzero;stroke:none"
             d="M 0,0 C 0.777,0.272 1.434,0.737 1.972,1.396 2.509,2.054 2.869,2.857 3.05,3.808 3.231,4.758 3.193,5.638 2.937,6.447 2.68,7.257 2.239,7.928 1.616,8.459 0.992,8.989 0.24,9.339 -0.641,9.508 -1.521,9.676 -2.35,9.628 -3.125,9.364 -3.9,9.101 -4.562,8.641 -5.107,7.984 -5.653,7.327 -6.018,6.524 -6.198,5.574 -6.38,4.625 -6.338,3.744 -6.072,2.933 -5.807,2.121 -5.363,1.445 -4.741,0.906 -4.119,0.366 -3.367,0.013 -2.486,-0.156 -1.605,-0.324 -0.777,-0.272 0,0 m -6.408,-0.723 c -0.973,0.813 -1.664,1.809 -2.074,2.988 -0.411,1.179 -0.487,2.443 -0.23,3.79 0.258,1.347 0.794,2.493 1.61,3.438 0.817,0.945 1.826,1.611 3.028,1.999 1.202,0.389 2.484,0.452 3.849,0.192 C 1.14,11.423 2.305,10.892 3.271,10.09 4.235,9.287 4.924,8.297 5.334,7.117 5.744,5.938 5.82,4.675 5.563,3.327 5.306,1.98 4.769,0.834 3.953,-0.11 3.137,-1.056 2.131,-1.728 0.937,-2.126 c -1.196,-0.398 -2.475,-0.467 -3.839,-0.206 -1.366,0.261 -2.534,0.797 -3.506,1.609" /></g><g
           transform="translate(868.5358,356.2079)"
           id="g164"><path
             id="path166"
             style="fill:#000000;fill-opacity:1;fill-rule:nonzero;stroke:none"
             d="M 0,0 C 0.752,0.335 1.373,0.852 1.863,1.552 2.354,2.25 2.65,3.081 2.753,4.043 2.855,5.004 2.741,5.878 2.41,6.665 2.078,7.452 1.58,8.085 0.915,8.563 0.25,9.04 -0.528,9.327 -1.42,9.422 -2.295,9.516 -3.107,9.395 -3.859,9.06 -4.611,8.725 -5.232,8.212 -5.722,7.521 -6.211,6.831 -6.507,6.005 -6.61,5.043 -6.713,4.081 -6.603,3.208 -6.28,2.422 -5.957,1.636 -5.46,0.999 -4.786,0.512 -4.113,0.023 -3.34,-0.267 -2.466,-0.36 -1.574,-0.455 -0.752,-0.336 0,0 M 2.549,10.324 C 3.552,9.616 4.298,8.696 4.787,7.565 5.276,6.435 5.446,5.169 5.297,3.771 5.147,2.372 4.714,1.167 3.995,0.156 3.277,-0.854 2.353,-1.601 1.223,-2.081 c -1.13,-0.481 -2.369,-0.648 -3.714,-0.505 -0.997,0.107 -1.89,0.397 -2.679,0.87 -0.79,0.474 -1.434,1.109 -1.933,1.904 l -0.767,-7.185 -2.518,0.268 2.03,18.989 2.412,-0.258 -0.236,-2.203 c 0.642,0.709 1.412,1.215 2.312,1.516 0.898,0.302 1.863,0.398 2.895,0.288 1.346,-0.144 2.521,-0.571 3.524,-1.279" /></g><g
           transform="translate(887.3923,355.2743)"
           id="g168"><path
             id="path170"
             style="fill:#000000;fill-opacity:1;fill-rule:nonzero;stroke:none"
             d="M 0,0 C 0.72,0.399 1.294,0.968 1.722,1.707 2.149,2.446 2.374,3.299 2.394,4.266 2.412,5.232 2.223,6.094 1.825,6.85 1.427,7.604 0.875,8.191 0.172,8.61 -0.532,9.028 -1.333,9.247 -2.229,9.265 -3.108,9.282 -3.908,9.092 -4.628,8.692 -5.349,8.294 -5.923,7.729 -6.351,6.999 -6.778,6.27 -7.002,5.42 -7.021,4.454 -7.04,3.486 -6.855,2.626 -6.466,1.87 -6.076,1.115 -5.525,0.523 -4.812,0.097 -4.101,-0.331 -3.305,-0.554 -2.426,-0.571 -1.529,-0.589 -0.721,-0.398 0,0 M 1.647,10.507 C 2.707,9.888 3.53,9.035 4.115,7.951 4.7,6.866 4.979,5.621 4.951,4.215 4.923,2.808 4.595,1.57 3.967,0.502 3.339,-0.567 2.482,-1.391 1.398,-1.967 c -1.085,-0.576 -2.303,-0.85 -3.657,-0.824 -1.002,0.02 -1.917,0.232 -2.744,0.636 -0.827,0.403 -1.523,0.979 -2.089,1.729 l -0.144,-7.224 -2.532,0.049 0.381,19.093 2.426,-0.049 -0.044,-2.214 c 0.578,0.761 1.302,1.332 2.171,1.71 0.869,0.378 1.822,0.557 2.859,0.537 1.355,-0.027 2.562,-0.351 3.622,-0.969" /></g><g
           transform="translate(898.7927,363.6952)"
           id="g172"><path
             id="path174"
             style="fill:#000000;fill-opacity:1;fill-rule:nonzero;stroke:none"
             d="m 0,0 c -0.77,-0.788 -1.187,-1.783 -1.253,-2.985 l 8.95,0.56 C 7.482,-1.258 6.944,-0.327 6.082,0.368 5.219,1.062 4.183,1.372 2.972,1.296 1.761,1.221 0.77,0.788 0,0 M 10.18,-4.093 -1.14,-4.802 c 0.236,-1.219 0.837,-2.172 1.805,-2.86 0.968,-0.688 2.137,-0.989 3.506,-0.903 1.667,0.104 2.974,0.75 3.922,1.937 L 9.59,-8.173 C 9.004,-8.949 8.254,-9.561 7.34,-10.005 6.425,-10.45 5.389,-10.709 4.23,-10.781 c -1.474,-0.093 -2.8,0.128 -3.979,0.662 -1.179,0.534 -2.114,1.325 -2.805,2.375 -0.691,1.049 -1.08,2.258 -1.165,3.627 -0.085,1.35 0.142,2.589 0.679,3.716 0.537,1.126 1.317,2.024 2.342,2.696 1.023,0.672 2.202,1.05 3.536,1.134 1.333,0.083 2.541,-0.145 3.624,-0.685 1.081,-0.54 1.95,-1.336 2.606,-2.387 0.657,-1.051 1.029,-2.279 1.117,-3.683 0.012,-0.194 0.01,-0.448 -0.005,-0.767" /></g><g
           transform="translate(918.7009,360.6005)"
           id="g176"><path
             id="path178"
             style="fill:#000000;fill-opacity:1;fill-rule:nonzero;stroke:none"
             d="M 0,0 -2.874,-0.399 -2.062,-6.251 -4.569,-6.6 -6.491,7.247 -3.983,7.595 -3.171,1.743 -0.245,2.149 3.437,8.625 6.127,8.999 1.801,1.607 8.415,-4.797 5.463,-5.207 Z" /></g><g
           transform="translate(944.7097,361.8173)"
           id="g180"><path
             id="path182"
             style="fill:#000000;fill-opacity:1;fill-rule:nonzero;stroke:none"
             d="m 0,0 1.187,-5.437 -2.346,-0.512 -0.714,3.272 -12.24,-2.671 -2.981,13.658 2.474,0.54 2.508,-11.494 7.473,1.631 -2.508,11.493 2.473,0.541 2.509,-11.494 z" /></g><g
           transform="translate(945.1227,374.1405)"
           id="g184"><path
             id="path186"
             style="fill:#000000;fill-opacity:1;fill-rule:nonzero;stroke:none"
             d="m 0,0 2.423,0.734 2.949,-9.745 5.256,12.228 2.196,0.665 4.049,-13.38 -2.423,-0.733 -2.949,9.744 -5.23,-12.22 -2.222,-0.672 z" /></g><g
           transform="translate(962.3786,379.5536)"
           id="g188"><path
             id="path190"
             style="fill:#000000;fill-opacity:1;fill-rule:nonzero;stroke:none"
             d="M 0,0 2.361,0.913 6.034,-8.582 10.356,4.005 12.497,4.833 17.539,-8.205 15.178,-9.118 11.506,0.377 7.207,-12.201 5.043,-13.038 Z" /></g></g></g></g></svg>