<svg width="132" height="130" viewBox="0 0 132 130" fill="none" xmlns="http://www.w3.org/2000/svg">
<path d="M36.6041 6.6125C12.3958 19.1 0.291626 38.3375 0.291626 65C0.291626 102.462 27.6125 129.125 66 129.125C104.387 129.125 131.708 102.462 131.708 65C131.708 26.8625 104.387 0.874998 65.3083 0.874998C55.2791 1.2125 42.4833 3.575 36.6041 6.6125ZM72.9166 53.1875C72.9166 86.2625 72.5708 88.625 66 88.625C59.4291 88.625 59.0833 86.2625 59.0833 53.1875C59.0833 20.1125 59.4291 17.75 66 17.75C72.5708 17.75 72.9166 20.1125 72.9166 53.1875ZM72.9166 105.5C72.9166 109.887 70.4958 112.25 66 112.25C61.5041 112.25 59.0833 109.887 59.0833 105.5C59.0833 101.112 61.5041 98.75 66 98.75C70.4958 98.75 72.9166 101.112 72.9166 105.5Z" fill="#FF0000" fill-opacity="0.7"/>
</svg>
